G75*
%MOIN*%
%OFA0B0*%
%FSLAX25Y25*%
%IPPOS*%
%LPD*%
%AMOC8*
5,1,8,0,0,1.08239X$1,22.5*
%
%ADD10R,0.04724X0.04724*%
%ADD11R,0.05118X0.05906*%
%ADD12R,0.05906X0.01969*%
%ADD13R,0.01969X0.05906*%
%ADD14C,0.06000*%
%ADD15R,0.02165X0.04724*%
%ADD16R,0.05906X0.05118*%
%ADD17R,0.03937X0.04331*%
%ADD18R,0.07200X0.10000*%
D10*
X0011420Y0050813D03*
X0019687Y0050813D03*
X0019687Y0074435D03*
X0011420Y0074435D03*
X0011420Y0098057D03*
X0019687Y0098057D03*
D11*
X0027561Y0098057D03*
X0035042Y0098057D03*
X0035042Y0105931D03*
X0027561Y0105931D03*
X0027561Y0074435D03*
X0035042Y0074435D03*
X0035042Y0050813D03*
X0027561Y0050813D03*
D12*
X0047837Y0054750D03*
X0047837Y0057899D03*
X0047837Y0061049D03*
X0047837Y0064198D03*
X0047837Y0067348D03*
X0047837Y0070498D03*
X0047837Y0073647D03*
X0047837Y0076797D03*
X0047837Y0079946D03*
X0047837Y0083096D03*
X0047837Y0086246D03*
X0093506Y0086246D03*
X0093506Y0083096D03*
X0093506Y0079946D03*
X0093506Y0076797D03*
X0093506Y0073647D03*
X0093506Y0070498D03*
X0093506Y0067348D03*
X0093506Y0064198D03*
X0093506Y0061049D03*
X0093506Y0057899D03*
X0093506Y0054750D03*
D13*
X0086420Y0047663D03*
X0083270Y0047663D03*
X0080120Y0047663D03*
X0076971Y0047663D03*
X0073821Y0047663D03*
X0070672Y0047663D03*
X0067522Y0047663D03*
X0064372Y0047663D03*
X0061223Y0047663D03*
X0058073Y0047663D03*
X0054924Y0047663D03*
X0054924Y0093332D03*
X0058073Y0093332D03*
X0061223Y0093332D03*
X0064372Y0093332D03*
X0067522Y0093332D03*
X0070672Y0093332D03*
X0073821Y0093332D03*
X0076971Y0093332D03*
X0080120Y0093332D03*
X0083270Y0093332D03*
X0086420Y0093332D03*
D14*
X0045672Y0036096D02*
X0045672Y0030096D01*
X0055672Y0030096D02*
X0055672Y0036096D01*
X0065672Y0036096D02*
X0065672Y0030096D01*
X0075672Y0030096D02*
X0075672Y0036096D01*
X0085672Y0036096D02*
X0085672Y0030096D01*
X0095672Y0030096D02*
X0095672Y0036096D01*
X0080672Y0105647D02*
X0080672Y0111647D01*
X0070672Y0111647D02*
X0070672Y0105647D01*
X0060672Y0105647D02*
X0060672Y0111647D01*
D15*
X0042916Y0112623D03*
X0039176Y0112623D03*
X0035435Y0112623D03*
X0035435Y0122860D03*
X0042916Y0122860D03*
D16*
X0050987Y0121482D03*
X0050987Y0114002D03*
X0027365Y0114002D03*
X0027365Y0121482D03*
D17*
X0043703Y0105931D03*
X0050396Y0105931D03*
D18*
X0104136Y0082309D03*
X0104136Y0070498D03*
X0104136Y0058687D03*
M02*
