G75*
%MOIN*%
%OFA0B0*%
%FSLAX25Y25*%
%IPPOS*%
%LPD*%
%AMOC8*
5,1,8,0,0,1.08239X$1,22.5*
%
%ADD10C,0.00600*%
%ADD11C,0.00400*%
D10*
X0021976Y0018668D02*
X0028376Y0018668D01*
X0024820Y0020802D01*
X0028376Y0022935D01*
X0021976Y0022935D01*
X0021976Y0026082D02*
X0028376Y0026082D01*
X0025887Y0027504D02*
X0021976Y0029637D01*
X0021976Y0031947D02*
X0021976Y0035503D01*
X0021976Y0033725D02*
X0028376Y0033725D01*
X0026953Y0031947D01*
X0028376Y0029637D02*
X0024464Y0026082D01*
X0032476Y0024718D02*
X0036742Y0024718D01*
X0036742Y0026851D01*
X0036031Y0026851D01*
X0036742Y0028992D02*
X0033542Y0028992D01*
X0033478Y0028994D01*
X0033413Y0029000D01*
X0033350Y0029009D01*
X0033287Y0029023D01*
X0033225Y0029040D01*
X0033164Y0029061D01*
X0033104Y0029086D01*
X0033046Y0029114D01*
X0032990Y0029146D01*
X0032936Y0029181D01*
X0032884Y0029219D01*
X0032834Y0029260D01*
X0032788Y0029305D01*
X0032743Y0029351D01*
X0032702Y0029401D01*
X0032664Y0029453D01*
X0032629Y0029507D01*
X0032597Y0029563D01*
X0032569Y0029621D01*
X0032544Y0029681D01*
X0032523Y0029742D01*
X0032506Y0029804D01*
X0032492Y0029867D01*
X0032483Y0029930D01*
X0032477Y0029995D01*
X0032475Y0030059D01*
X0032476Y0030059D02*
X0032476Y0031837D01*
X0036742Y0031837D01*
X0034964Y0035064D02*
X0034253Y0036842D01*
X0034229Y0036897D01*
X0034202Y0036950D01*
X0034171Y0037001D01*
X0034137Y0037050D01*
X0034100Y0037096D01*
X0034060Y0037140D01*
X0034018Y0037182D01*
X0033972Y0037220D01*
X0033925Y0037256D01*
X0033875Y0037288D01*
X0033823Y0037318D01*
X0033769Y0037343D01*
X0033714Y0037366D01*
X0033658Y0037384D01*
X0033600Y0037399D01*
X0033542Y0037411D01*
X0033483Y0037418D01*
X0033423Y0037422D01*
X0033364Y0037421D01*
X0033304Y0037417D01*
X0033245Y0037409D01*
X0033187Y0037398D01*
X0033130Y0037382D01*
X0033073Y0037363D01*
X0033018Y0037341D01*
X0032965Y0037314D01*
X0032913Y0037285D01*
X0032864Y0037252D01*
X0032816Y0037216D01*
X0032771Y0037177D01*
X0032729Y0037135D01*
X0032689Y0037091D01*
X0032653Y0037044D01*
X0032619Y0036995D01*
X0032589Y0036944D01*
X0032562Y0036891D01*
X0032538Y0036836D01*
X0032519Y0036780D01*
X0032502Y0036723D01*
X0032490Y0036664D01*
X0032481Y0036606D01*
X0032476Y0036546D01*
X0032475Y0036487D01*
X0036387Y0037020D02*
X0036434Y0036912D01*
X0036477Y0036802D01*
X0036518Y0036691D01*
X0036555Y0036579D01*
X0036589Y0036467D01*
X0036620Y0036353D01*
X0036647Y0036238D01*
X0036671Y0036122D01*
X0036691Y0036006D01*
X0036708Y0035890D01*
X0036722Y0035773D01*
X0036732Y0035655D01*
X0036739Y0035538D01*
X0036743Y0035420D01*
X0036742Y0035420D02*
X0036741Y0035361D01*
X0036736Y0035301D01*
X0036727Y0035243D01*
X0036715Y0035184D01*
X0036698Y0035127D01*
X0036679Y0035071D01*
X0036655Y0035016D01*
X0036628Y0034963D01*
X0036598Y0034912D01*
X0036564Y0034863D01*
X0036528Y0034816D01*
X0036488Y0034772D01*
X0036446Y0034730D01*
X0036401Y0034691D01*
X0036353Y0034655D01*
X0036304Y0034622D01*
X0036252Y0034593D01*
X0036199Y0034566D01*
X0036144Y0034544D01*
X0036087Y0034525D01*
X0036030Y0034509D01*
X0035972Y0034498D01*
X0035913Y0034490D01*
X0035853Y0034486D01*
X0035794Y0034485D01*
X0035734Y0034489D01*
X0035675Y0034496D01*
X0035617Y0034508D01*
X0035559Y0034523D01*
X0035503Y0034541D01*
X0035448Y0034564D01*
X0035394Y0034589D01*
X0035342Y0034619D01*
X0035292Y0034651D01*
X0035245Y0034687D01*
X0035199Y0034725D01*
X0035157Y0034767D01*
X0035117Y0034811D01*
X0035080Y0034857D01*
X0035046Y0034906D01*
X0035015Y0034957D01*
X0034988Y0035010D01*
X0034964Y0035065D01*
X0032831Y0034531D02*
X0032781Y0034676D01*
X0032735Y0034823D01*
X0032692Y0034970D01*
X0032653Y0035119D01*
X0032618Y0035269D01*
X0032586Y0035419D01*
X0032559Y0035570D01*
X0032535Y0035722D01*
X0032516Y0035874D01*
X0032500Y0036027D01*
X0032488Y0036180D01*
X0032480Y0036333D01*
X0032476Y0036487D01*
X0032476Y0040070D02*
X0038876Y0040070D01*
X0036742Y0040070D02*
X0036742Y0041847D01*
X0036743Y0041847D02*
X0036741Y0041911D01*
X0036735Y0041976D01*
X0036726Y0042039D01*
X0036712Y0042102D01*
X0036695Y0042164D01*
X0036674Y0042225D01*
X0036649Y0042285D01*
X0036621Y0042343D01*
X0036589Y0042399D01*
X0036554Y0042453D01*
X0036516Y0042505D01*
X0036475Y0042555D01*
X0036430Y0042601D01*
X0036384Y0042646D01*
X0036334Y0042687D01*
X0036282Y0042725D01*
X0036228Y0042760D01*
X0036172Y0042792D01*
X0036114Y0042820D01*
X0036054Y0042845D01*
X0035993Y0042866D01*
X0035931Y0042883D01*
X0035868Y0042897D01*
X0035805Y0042906D01*
X0035740Y0042912D01*
X0035676Y0042914D01*
X0032476Y0042914D01*
X0033542Y0045702D02*
X0038876Y0045702D01*
X0035320Y0048890D02*
X0033542Y0048890D01*
X0034609Y0048890D02*
X0034609Y0051735D01*
X0035320Y0051735D01*
X0035394Y0051733D01*
X0035469Y0051727D01*
X0035542Y0051717D01*
X0035616Y0051704D01*
X0035688Y0051687D01*
X0035759Y0051665D01*
X0035830Y0051641D01*
X0035898Y0051612D01*
X0035966Y0051580D01*
X0036031Y0051544D01*
X0036094Y0051506D01*
X0036156Y0051463D01*
X0036215Y0051418D01*
X0036272Y0051370D01*
X0036326Y0051319D01*
X0036377Y0051265D01*
X0036425Y0051208D01*
X0036470Y0051149D01*
X0036513Y0051087D01*
X0036551Y0051024D01*
X0036587Y0050959D01*
X0036619Y0050891D01*
X0036648Y0050823D01*
X0036672Y0050752D01*
X0036694Y0050681D01*
X0036711Y0050609D01*
X0036724Y0050535D01*
X0036734Y0050462D01*
X0036740Y0050387D01*
X0036742Y0050313D01*
X0036740Y0050239D01*
X0036734Y0050164D01*
X0036724Y0050091D01*
X0036711Y0050017D01*
X0036694Y0049945D01*
X0036672Y0049874D01*
X0036648Y0049803D01*
X0036619Y0049735D01*
X0036587Y0049667D01*
X0036551Y0049602D01*
X0036513Y0049539D01*
X0036470Y0049477D01*
X0036425Y0049418D01*
X0036377Y0049361D01*
X0036326Y0049307D01*
X0036272Y0049256D01*
X0036215Y0049208D01*
X0036156Y0049163D01*
X0036094Y0049120D01*
X0036031Y0049082D01*
X0035966Y0049046D01*
X0035898Y0049014D01*
X0035830Y0048985D01*
X0035759Y0048961D01*
X0035688Y0048939D01*
X0035616Y0048922D01*
X0035542Y0048909D01*
X0035469Y0048899D01*
X0035394Y0048893D01*
X0035320Y0048891D01*
X0033542Y0048890D02*
X0033478Y0048892D01*
X0033413Y0048898D01*
X0033350Y0048907D01*
X0033287Y0048921D01*
X0033225Y0048938D01*
X0033164Y0048959D01*
X0033104Y0048984D01*
X0033046Y0049012D01*
X0032990Y0049044D01*
X0032936Y0049079D01*
X0032884Y0049117D01*
X0032834Y0049158D01*
X0032788Y0049203D01*
X0032743Y0049249D01*
X0032702Y0049299D01*
X0032664Y0049351D01*
X0032629Y0049405D01*
X0032597Y0049461D01*
X0032569Y0049519D01*
X0032544Y0049579D01*
X0032523Y0049640D01*
X0032506Y0049702D01*
X0032492Y0049765D01*
X0032483Y0049828D01*
X0032477Y0049893D01*
X0032475Y0049957D01*
X0032476Y0049957D02*
X0032476Y0051735D01*
X0036743Y0055113D02*
X0036739Y0055231D01*
X0036732Y0055348D01*
X0036722Y0055466D01*
X0036708Y0055583D01*
X0036691Y0055699D01*
X0036671Y0055815D01*
X0036647Y0055931D01*
X0036620Y0056046D01*
X0036589Y0056160D01*
X0036555Y0056272D01*
X0036518Y0056384D01*
X0036477Y0056495D01*
X0036434Y0056605D01*
X0036387Y0056713D01*
X0036742Y0055113D02*
X0036741Y0055054D01*
X0036736Y0054994D01*
X0036727Y0054936D01*
X0036715Y0054877D01*
X0036698Y0054820D01*
X0036679Y0054764D01*
X0036655Y0054709D01*
X0036628Y0054656D01*
X0036598Y0054605D01*
X0036564Y0054556D01*
X0036528Y0054509D01*
X0036488Y0054465D01*
X0036446Y0054423D01*
X0036401Y0054384D01*
X0036353Y0054348D01*
X0036304Y0054315D01*
X0036252Y0054286D01*
X0036199Y0054259D01*
X0036144Y0054237D01*
X0036087Y0054218D01*
X0036030Y0054202D01*
X0035972Y0054191D01*
X0035913Y0054183D01*
X0035853Y0054179D01*
X0035794Y0054178D01*
X0035734Y0054182D01*
X0035675Y0054189D01*
X0035617Y0054201D01*
X0035559Y0054216D01*
X0035503Y0054234D01*
X0035448Y0054257D01*
X0035394Y0054282D01*
X0035342Y0054312D01*
X0035292Y0054344D01*
X0035245Y0054380D01*
X0035199Y0054418D01*
X0035157Y0054460D01*
X0035117Y0054504D01*
X0035080Y0054550D01*
X0035046Y0054599D01*
X0035015Y0054650D01*
X0034988Y0054703D01*
X0034964Y0054758D01*
X0034964Y0054757D02*
X0034253Y0056535D01*
X0034229Y0056590D01*
X0034202Y0056643D01*
X0034171Y0056694D01*
X0034137Y0056743D01*
X0034100Y0056789D01*
X0034060Y0056833D01*
X0034018Y0056875D01*
X0033972Y0056913D01*
X0033925Y0056949D01*
X0033875Y0056981D01*
X0033823Y0057011D01*
X0033769Y0057036D01*
X0033714Y0057059D01*
X0033658Y0057077D01*
X0033600Y0057092D01*
X0033542Y0057104D01*
X0033483Y0057111D01*
X0033423Y0057115D01*
X0033364Y0057114D01*
X0033304Y0057110D01*
X0033245Y0057102D01*
X0033187Y0057091D01*
X0033130Y0057075D01*
X0033073Y0057056D01*
X0033018Y0057034D01*
X0032965Y0057007D01*
X0032913Y0056978D01*
X0032864Y0056945D01*
X0032816Y0056909D01*
X0032771Y0056870D01*
X0032729Y0056828D01*
X0032689Y0056784D01*
X0032653Y0056737D01*
X0032619Y0056688D01*
X0032589Y0056637D01*
X0032562Y0056584D01*
X0032538Y0056529D01*
X0032519Y0056473D01*
X0032502Y0056416D01*
X0032490Y0056357D01*
X0032481Y0056299D01*
X0032476Y0056239D01*
X0032475Y0056180D01*
X0036743Y0060447D02*
X0036739Y0060565D01*
X0036732Y0060682D01*
X0036722Y0060800D01*
X0036708Y0060917D01*
X0036691Y0061033D01*
X0036671Y0061149D01*
X0036647Y0061265D01*
X0036620Y0061380D01*
X0036589Y0061494D01*
X0036555Y0061606D01*
X0036518Y0061718D01*
X0036477Y0061829D01*
X0036434Y0061939D01*
X0036387Y0062047D01*
X0036742Y0060446D02*
X0036741Y0060387D01*
X0036736Y0060327D01*
X0036727Y0060269D01*
X0036715Y0060210D01*
X0036698Y0060153D01*
X0036679Y0060097D01*
X0036655Y0060042D01*
X0036628Y0059989D01*
X0036598Y0059938D01*
X0036564Y0059889D01*
X0036528Y0059842D01*
X0036488Y0059798D01*
X0036446Y0059756D01*
X0036401Y0059717D01*
X0036353Y0059681D01*
X0036304Y0059648D01*
X0036252Y0059619D01*
X0036199Y0059592D01*
X0036144Y0059570D01*
X0036087Y0059551D01*
X0036030Y0059535D01*
X0035972Y0059524D01*
X0035913Y0059516D01*
X0035853Y0059512D01*
X0035794Y0059511D01*
X0035734Y0059515D01*
X0035675Y0059522D01*
X0035617Y0059534D01*
X0035559Y0059549D01*
X0035503Y0059567D01*
X0035448Y0059590D01*
X0035394Y0059615D01*
X0035342Y0059645D01*
X0035292Y0059677D01*
X0035245Y0059713D01*
X0035199Y0059751D01*
X0035157Y0059793D01*
X0035117Y0059837D01*
X0035080Y0059883D01*
X0035046Y0059932D01*
X0035015Y0059983D01*
X0034988Y0060036D01*
X0034964Y0060091D01*
X0034253Y0061869D01*
X0034253Y0061868D02*
X0034229Y0061923D01*
X0034202Y0061976D01*
X0034171Y0062027D01*
X0034137Y0062076D01*
X0034100Y0062122D01*
X0034060Y0062166D01*
X0034018Y0062208D01*
X0033972Y0062246D01*
X0033925Y0062282D01*
X0033875Y0062314D01*
X0033823Y0062344D01*
X0033769Y0062369D01*
X0033714Y0062392D01*
X0033658Y0062410D01*
X0033600Y0062425D01*
X0033542Y0062437D01*
X0033483Y0062444D01*
X0033423Y0062448D01*
X0033364Y0062447D01*
X0033304Y0062443D01*
X0033245Y0062435D01*
X0033187Y0062424D01*
X0033130Y0062408D01*
X0033073Y0062389D01*
X0033018Y0062367D01*
X0032965Y0062340D01*
X0032913Y0062311D01*
X0032864Y0062278D01*
X0032816Y0062242D01*
X0032771Y0062203D01*
X0032729Y0062161D01*
X0032689Y0062117D01*
X0032653Y0062070D01*
X0032619Y0062021D01*
X0032589Y0061970D01*
X0032562Y0061917D01*
X0032538Y0061862D01*
X0032519Y0061806D01*
X0032502Y0061749D01*
X0032490Y0061690D01*
X0032481Y0061632D01*
X0032476Y0061572D01*
X0032475Y0061513D01*
X0026953Y0059353D02*
X0023398Y0056509D01*
X0021975Y0057931D02*
X0021977Y0058002D01*
X0021983Y0058073D01*
X0021992Y0058143D01*
X0022006Y0058213D01*
X0022023Y0058282D01*
X0022043Y0058349D01*
X0022068Y0058416D01*
X0022096Y0058481D01*
X0022127Y0058545D01*
X0022162Y0058607D01*
X0022200Y0058667D01*
X0022241Y0058724D01*
X0022285Y0058780D01*
X0022333Y0058833D01*
X0022383Y0058883D01*
X0022435Y0058931D01*
X0022490Y0058976D01*
X0022548Y0059017D01*
X0022608Y0059056D01*
X0022669Y0059091D01*
X0022733Y0059123D01*
X0022798Y0059151D01*
X0022864Y0059176D01*
X0021975Y0057931D02*
X0021977Y0057860D01*
X0021983Y0057789D01*
X0021992Y0057719D01*
X0022006Y0057649D01*
X0022023Y0057580D01*
X0022043Y0057513D01*
X0022068Y0057446D01*
X0022096Y0057381D01*
X0022127Y0057317D01*
X0022162Y0057255D01*
X0022200Y0057195D01*
X0022241Y0057137D01*
X0022285Y0057082D01*
X0022333Y0057029D01*
X0022383Y0056979D01*
X0022435Y0056931D01*
X0022490Y0056886D01*
X0022548Y0056845D01*
X0022608Y0056806D01*
X0022669Y0056771D01*
X0022733Y0056739D01*
X0022798Y0056711D01*
X0022864Y0056686D01*
X0022331Y0053801D02*
X0021976Y0053801D01*
X0021976Y0053445D01*
X0022331Y0053445D01*
X0022331Y0053801D01*
X0021976Y0051093D02*
X0021976Y0047538D01*
X0021976Y0049315D02*
X0028376Y0049315D01*
X0026953Y0047538D01*
X0028376Y0045295D02*
X0021976Y0043161D01*
X0028376Y0041028D01*
X0033542Y0045701D02*
X0033478Y0045703D01*
X0033413Y0045709D01*
X0033350Y0045718D01*
X0033287Y0045732D01*
X0033225Y0045749D01*
X0033164Y0045770D01*
X0033104Y0045795D01*
X0033046Y0045823D01*
X0032990Y0045855D01*
X0032936Y0045890D01*
X0032884Y0045928D01*
X0032834Y0045969D01*
X0032788Y0046014D01*
X0032743Y0046060D01*
X0032702Y0046110D01*
X0032664Y0046162D01*
X0032629Y0046216D01*
X0032597Y0046272D01*
X0032569Y0046330D01*
X0032544Y0046390D01*
X0032523Y0046451D01*
X0032506Y0046513D01*
X0032492Y0046576D01*
X0032483Y0046639D01*
X0032477Y0046704D01*
X0032475Y0046768D01*
X0025176Y0059709D02*
X0025035Y0059707D01*
X0024895Y0059701D01*
X0024754Y0059692D01*
X0024614Y0059679D01*
X0024474Y0059662D01*
X0024335Y0059642D01*
X0024197Y0059617D01*
X0024059Y0059589D01*
X0023922Y0059558D01*
X0023785Y0059522D01*
X0023650Y0059483D01*
X0023516Y0059441D01*
X0023383Y0059395D01*
X0023251Y0059345D01*
X0023121Y0059292D01*
X0022992Y0059236D01*
X0022865Y0059176D01*
X0025176Y0056153D02*
X0025317Y0056155D01*
X0025457Y0056161D01*
X0025598Y0056170D01*
X0025738Y0056183D01*
X0025878Y0056200D01*
X0026017Y0056220D01*
X0026155Y0056245D01*
X0026293Y0056273D01*
X0026430Y0056304D01*
X0026567Y0056340D01*
X0026702Y0056379D01*
X0026836Y0056421D01*
X0026969Y0056467D01*
X0027101Y0056517D01*
X0027231Y0056570D01*
X0027360Y0056626D01*
X0027487Y0056686D01*
X0028376Y0057931D02*
X0028374Y0058002D01*
X0028368Y0058073D01*
X0028359Y0058143D01*
X0028345Y0058213D01*
X0028328Y0058282D01*
X0028308Y0058349D01*
X0028283Y0058416D01*
X0028255Y0058481D01*
X0028224Y0058545D01*
X0028189Y0058607D01*
X0028151Y0058667D01*
X0028110Y0058725D01*
X0028066Y0058780D01*
X0028018Y0058833D01*
X0027968Y0058883D01*
X0027916Y0058931D01*
X0027861Y0058976D01*
X0027803Y0059017D01*
X0027743Y0059056D01*
X0027682Y0059091D01*
X0027618Y0059123D01*
X0027553Y0059151D01*
X0027487Y0059176D01*
X0028376Y0057931D02*
X0028374Y0057860D01*
X0028368Y0057789D01*
X0028359Y0057719D01*
X0028345Y0057649D01*
X0028328Y0057580D01*
X0028308Y0057513D01*
X0028283Y0057446D01*
X0028255Y0057381D01*
X0028224Y0057317D01*
X0028189Y0057255D01*
X0028151Y0057195D01*
X0028110Y0057137D01*
X0028066Y0057082D01*
X0028018Y0057029D01*
X0027968Y0056979D01*
X0027916Y0056931D01*
X0027861Y0056886D01*
X0027803Y0056845D01*
X0027743Y0056806D01*
X0027682Y0056771D01*
X0027618Y0056739D01*
X0027553Y0056711D01*
X0027487Y0056686D01*
X0027487Y0059176D02*
X0027360Y0059236D01*
X0027231Y0059292D01*
X0027101Y0059345D01*
X0026969Y0059395D01*
X0026836Y0059441D01*
X0026702Y0059483D01*
X0026567Y0059522D01*
X0026430Y0059558D01*
X0026293Y0059589D01*
X0026155Y0059617D01*
X0026017Y0059642D01*
X0025878Y0059662D01*
X0025738Y0059679D01*
X0025598Y0059692D01*
X0025457Y0059701D01*
X0025317Y0059707D01*
X0025176Y0059709D01*
X0025176Y0056153D02*
X0025035Y0056155D01*
X0024895Y0056161D01*
X0024754Y0056170D01*
X0024614Y0056183D01*
X0024474Y0056200D01*
X0024335Y0056220D01*
X0024197Y0056245D01*
X0024059Y0056273D01*
X0023922Y0056304D01*
X0023785Y0056340D01*
X0023650Y0056379D01*
X0023516Y0056421D01*
X0023383Y0056467D01*
X0023251Y0056517D01*
X0023121Y0056570D01*
X0022992Y0056626D01*
X0022865Y0056686D01*
X0032476Y0068488D02*
X0038876Y0068488D01*
X0035320Y0070621D01*
X0038876Y0072754D01*
X0032476Y0072754D01*
X0033898Y0075558D02*
X0035320Y0075558D01*
X0035394Y0075560D01*
X0035469Y0075566D01*
X0035542Y0075576D01*
X0035616Y0075589D01*
X0035688Y0075606D01*
X0035759Y0075628D01*
X0035830Y0075652D01*
X0035898Y0075681D01*
X0035966Y0075713D01*
X0036031Y0075749D01*
X0036094Y0075787D01*
X0036156Y0075830D01*
X0036215Y0075875D01*
X0036272Y0075923D01*
X0036326Y0075974D01*
X0036377Y0076028D01*
X0036425Y0076085D01*
X0036470Y0076144D01*
X0036513Y0076206D01*
X0036551Y0076269D01*
X0036587Y0076334D01*
X0036619Y0076402D01*
X0036648Y0076470D01*
X0036672Y0076541D01*
X0036694Y0076612D01*
X0036711Y0076684D01*
X0036724Y0076758D01*
X0036734Y0076831D01*
X0036740Y0076906D01*
X0036742Y0076980D01*
X0036740Y0077054D01*
X0036734Y0077129D01*
X0036724Y0077202D01*
X0036711Y0077276D01*
X0036694Y0077348D01*
X0036672Y0077419D01*
X0036648Y0077490D01*
X0036619Y0077558D01*
X0036587Y0077626D01*
X0036551Y0077691D01*
X0036513Y0077754D01*
X0036470Y0077816D01*
X0036425Y0077875D01*
X0036377Y0077932D01*
X0036326Y0077986D01*
X0036272Y0078037D01*
X0036215Y0078085D01*
X0036156Y0078130D01*
X0036094Y0078173D01*
X0036031Y0078211D01*
X0035966Y0078247D01*
X0035898Y0078279D01*
X0035830Y0078308D01*
X0035759Y0078332D01*
X0035688Y0078354D01*
X0035616Y0078371D01*
X0035542Y0078384D01*
X0035469Y0078394D01*
X0035394Y0078400D01*
X0035320Y0078402D01*
X0033898Y0078402D01*
X0033824Y0078400D01*
X0033749Y0078394D01*
X0033676Y0078384D01*
X0033602Y0078371D01*
X0033530Y0078354D01*
X0033459Y0078332D01*
X0033388Y0078308D01*
X0033320Y0078279D01*
X0033252Y0078247D01*
X0033187Y0078211D01*
X0033124Y0078173D01*
X0033062Y0078130D01*
X0033003Y0078085D01*
X0032946Y0078037D01*
X0032892Y0077986D01*
X0032841Y0077932D01*
X0032793Y0077875D01*
X0032748Y0077816D01*
X0032705Y0077754D01*
X0032667Y0077691D01*
X0032631Y0077626D01*
X0032599Y0077558D01*
X0032570Y0077490D01*
X0032546Y0077419D01*
X0032524Y0077348D01*
X0032507Y0077276D01*
X0032494Y0077202D01*
X0032484Y0077129D01*
X0032478Y0077054D01*
X0032476Y0076980D01*
X0032478Y0076906D01*
X0032484Y0076831D01*
X0032494Y0076758D01*
X0032507Y0076684D01*
X0032524Y0076612D01*
X0032546Y0076541D01*
X0032570Y0076470D01*
X0032599Y0076402D01*
X0032631Y0076334D01*
X0032667Y0076269D01*
X0032705Y0076206D01*
X0032748Y0076144D01*
X0032793Y0076085D01*
X0032841Y0076028D01*
X0032892Y0075974D01*
X0032946Y0075923D01*
X0033003Y0075875D01*
X0033062Y0075830D01*
X0033124Y0075787D01*
X0033187Y0075749D01*
X0033252Y0075713D01*
X0033320Y0075681D01*
X0033388Y0075652D01*
X0033459Y0075628D01*
X0033530Y0075606D01*
X0033602Y0075589D01*
X0033676Y0075576D01*
X0033749Y0075566D01*
X0033824Y0075560D01*
X0033898Y0075558D01*
X0033542Y0081092D02*
X0038876Y0081092D01*
X0036742Y0080381D02*
X0036742Y0082514D01*
X0035320Y0084789D02*
X0033898Y0084789D01*
X0033824Y0084791D01*
X0033749Y0084797D01*
X0033676Y0084807D01*
X0033602Y0084820D01*
X0033530Y0084837D01*
X0033459Y0084859D01*
X0033388Y0084883D01*
X0033320Y0084912D01*
X0033252Y0084944D01*
X0033187Y0084980D01*
X0033124Y0085018D01*
X0033062Y0085061D01*
X0033003Y0085106D01*
X0032946Y0085154D01*
X0032892Y0085205D01*
X0032841Y0085259D01*
X0032793Y0085316D01*
X0032748Y0085375D01*
X0032705Y0085437D01*
X0032667Y0085500D01*
X0032631Y0085565D01*
X0032599Y0085633D01*
X0032570Y0085701D01*
X0032546Y0085772D01*
X0032524Y0085843D01*
X0032507Y0085915D01*
X0032494Y0085989D01*
X0032484Y0086062D01*
X0032478Y0086137D01*
X0032476Y0086211D01*
X0032478Y0086285D01*
X0032484Y0086360D01*
X0032494Y0086433D01*
X0032507Y0086507D01*
X0032524Y0086579D01*
X0032546Y0086650D01*
X0032570Y0086721D01*
X0032599Y0086789D01*
X0032631Y0086857D01*
X0032667Y0086922D01*
X0032705Y0086985D01*
X0032748Y0087047D01*
X0032793Y0087106D01*
X0032841Y0087163D01*
X0032892Y0087217D01*
X0032946Y0087268D01*
X0033003Y0087316D01*
X0033062Y0087361D01*
X0033124Y0087404D01*
X0033187Y0087442D01*
X0033252Y0087478D01*
X0033320Y0087510D01*
X0033388Y0087539D01*
X0033459Y0087563D01*
X0033530Y0087585D01*
X0033602Y0087602D01*
X0033676Y0087615D01*
X0033749Y0087625D01*
X0033824Y0087631D01*
X0033898Y0087633D01*
X0035320Y0087633D01*
X0035394Y0087631D01*
X0035469Y0087625D01*
X0035542Y0087615D01*
X0035616Y0087602D01*
X0035688Y0087585D01*
X0035759Y0087563D01*
X0035830Y0087539D01*
X0035898Y0087510D01*
X0035966Y0087478D01*
X0036031Y0087442D01*
X0036094Y0087404D01*
X0036156Y0087361D01*
X0036215Y0087316D01*
X0036272Y0087268D01*
X0036326Y0087217D01*
X0036377Y0087163D01*
X0036425Y0087106D01*
X0036470Y0087047D01*
X0036513Y0086985D01*
X0036551Y0086922D01*
X0036587Y0086857D01*
X0036619Y0086789D01*
X0036648Y0086721D01*
X0036672Y0086650D01*
X0036694Y0086579D01*
X0036711Y0086507D01*
X0036724Y0086433D01*
X0036734Y0086360D01*
X0036740Y0086285D01*
X0036742Y0086211D01*
X0036740Y0086137D01*
X0036734Y0086062D01*
X0036724Y0085989D01*
X0036711Y0085915D01*
X0036694Y0085843D01*
X0036672Y0085772D01*
X0036648Y0085701D01*
X0036619Y0085633D01*
X0036587Y0085565D01*
X0036551Y0085500D01*
X0036513Y0085437D01*
X0036470Y0085375D01*
X0036425Y0085316D01*
X0036377Y0085259D01*
X0036326Y0085205D01*
X0036272Y0085154D01*
X0036215Y0085106D01*
X0036156Y0085061D01*
X0036094Y0085018D01*
X0036031Y0084980D01*
X0035966Y0084944D01*
X0035898Y0084912D01*
X0035830Y0084883D01*
X0035759Y0084859D01*
X0035688Y0084837D01*
X0035616Y0084820D01*
X0035542Y0084807D01*
X0035469Y0084797D01*
X0035394Y0084791D01*
X0035320Y0084789D01*
X0032475Y0082158D02*
X0032477Y0082094D01*
X0032483Y0082029D01*
X0032492Y0081966D01*
X0032506Y0081903D01*
X0032523Y0081841D01*
X0032544Y0081780D01*
X0032569Y0081720D01*
X0032597Y0081662D01*
X0032629Y0081606D01*
X0032664Y0081552D01*
X0032702Y0081500D01*
X0032743Y0081450D01*
X0032788Y0081404D01*
X0032834Y0081359D01*
X0032884Y0081318D01*
X0032936Y0081280D01*
X0032990Y0081245D01*
X0033046Y0081213D01*
X0033104Y0081185D01*
X0033164Y0081160D01*
X0033225Y0081139D01*
X0033287Y0081122D01*
X0033350Y0081108D01*
X0033413Y0081099D01*
X0033478Y0081093D01*
X0033542Y0081091D01*
X0032476Y0082158D02*
X0032476Y0082514D01*
X0032476Y0090361D02*
X0036742Y0090361D01*
X0036742Y0092494D01*
X0036031Y0092494D01*
X0038876Y0097357D02*
X0038876Y0100912D01*
X0038876Y0099135D02*
X0032476Y0099135D01*
X0033542Y0103046D02*
X0035320Y0103046D01*
X0034609Y0103046D02*
X0034609Y0105890D01*
X0035320Y0105890D01*
X0035394Y0105888D01*
X0035469Y0105882D01*
X0035542Y0105872D01*
X0035616Y0105859D01*
X0035688Y0105842D01*
X0035759Y0105820D01*
X0035830Y0105796D01*
X0035898Y0105767D01*
X0035966Y0105735D01*
X0036031Y0105699D01*
X0036094Y0105661D01*
X0036156Y0105618D01*
X0036215Y0105573D01*
X0036272Y0105525D01*
X0036326Y0105474D01*
X0036377Y0105420D01*
X0036425Y0105363D01*
X0036470Y0105304D01*
X0036513Y0105242D01*
X0036551Y0105179D01*
X0036587Y0105114D01*
X0036619Y0105046D01*
X0036648Y0104978D01*
X0036672Y0104907D01*
X0036694Y0104836D01*
X0036711Y0104764D01*
X0036724Y0104690D01*
X0036734Y0104617D01*
X0036740Y0104542D01*
X0036742Y0104468D01*
X0036740Y0104394D01*
X0036734Y0104319D01*
X0036724Y0104246D01*
X0036711Y0104172D01*
X0036694Y0104100D01*
X0036672Y0104029D01*
X0036648Y0103958D01*
X0036619Y0103890D01*
X0036587Y0103822D01*
X0036551Y0103757D01*
X0036513Y0103694D01*
X0036470Y0103632D01*
X0036425Y0103573D01*
X0036377Y0103516D01*
X0036326Y0103462D01*
X0036272Y0103411D01*
X0036215Y0103363D01*
X0036156Y0103318D01*
X0036094Y0103275D01*
X0036031Y0103237D01*
X0035966Y0103201D01*
X0035898Y0103169D01*
X0035830Y0103140D01*
X0035759Y0103116D01*
X0035688Y0103094D01*
X0035616Y0103077D01*
X0035542Y0103064D01*
X0035469Y0103054D01*
X0035394Y0103048D01*
X0035320Y0103046D01*
X0033542Y0103046D02*
X0033478Y0103048D01*
X0033413Y0103054D01*
X0033350Y0103063D01*
X0033287Y0103077D01*
X0033225Y0103094D01*
X0033164Y0103115D01*
X0033104Y0103140D01*
X0033046Y0103168D01*
X0032990Y0103200D01*
X0032936Y0103235D01*
X0032884Y0103273D01*
X0032834Y0103314D01*
X0032788Y0103359D01*
X0032743Y0103405D01*
X0032702Y0103455D01*
X0032664Y0103507D01*
X0032629Y0103561D01*
X0032597Y0103617D01*
X0032569Y0103675D01*
X0032544Y0103735D01*
X0032523Y0103796D01*
X0032506Y0103858D01*
X0032492Y0103921D01*
X0032483Y0103984D01*
X0032477Y0104049D01*
X0032475Y0104113D01*
X0032476Y0104113D02*
X0032476Y0105890D01*
X0034964Y0108913D02*
X0034253Y0110690D01*
X0034229Y0110745D01*
X0034202Y0110798D01*
X0034171Y0110849D01*
X0034137Y0110898D01*
X0034100Y0110944D01*
X0034060Y0110988D01*
X0034018Y0111030D01*
X0033972Y0111068D01*
X0033925Y0111104D01*
X0033875Y0111136D01*
X0033823Y0111166D01*
X0033769Y0111191D01*
X0033714Y0111214D01*
X0033658Y0111232D01*
X0033600Y0111247D01*
X0033542Y0111259D01*
X0033483Y0111266D01*
X0033423Y0111270D01*
X0033364Y0111269D01*
X0033304Y0111265D01*
X0033245Y0111257D01*
X0033187Y0111246D01*
X0033130Y0111230D01*
X0033073Y0111211D01*
X0033018Y0111189D01*
X0032965Y0111162D01*
X0032913Y0111133D01*
X0032864Y0111100D01*
X0032816Y0111064D01*
X0032771Y0111025D01*
X0032729Y0110983D01*
X0032689Y0110939D01*
X0032653Y0110892D01*
X0032619Y0110843D01*
X0032589Y0110792D01*
X0032562Y0110739D01*
X0032538Y0110684D01*
X0032519Y0110628D01*
X0032502Y0110571D01*
X0032490Y0110512D01*
X0032481Y0110454D01*
X0032476Y0110394D01*
X0032475Y0110335D01*
X0036387Y0110869D02*
X0036434Y0110761D01*
X0036477Y0110651D01*
X0036518Y0110540D01*
X0036555Y0110428D01*
X0036589Y0110316D01*
X0036620Y0110202D01*
X0036647Y0110087D01*
X0036671Y0109971D01*
X0036691Y0109855D01*
X0036708Y0109739D01*
X0036722Y0109622D01*
X0036732Y0109504D01*
X0036739Y0109387D01*
X0036743Y0109269D01*
X0036742Y0109268D02*
X0036741Y0109209D01*
X0036736Y0109149D01*
X0036727Y0109091D01*
X0036715Y0109032D01*
X0036698Y0108975D01*
X0036679Y0108919D01*
X0036655Y0108864D01*
X0036628Y0108811D01*
X0036598Y0108760D01*
X0036564Y0108711D01*
X0036528Y0108664D01*
X0036488Y0108620D01*
X0036446Y0108578D01*
X0036401Y0108539D01*
X0036353Y0108503D01*
X0036304Y0108470D01*
X0036252Y0108441D01*
X0036199Y0108414D01*
X0036144Y0108392D01*
X0036087Y0108373D01*
X0036030Y0108357D01*
X0035972Y0108346D01*
X0035913Y0108338D01*
X0035853Y0108334D01*
X0035794Y0108333D01*
X0035734Y0108337D01*
X0035675Y0108344D01*
X0035617Y0108356D01*
X0035559Y0108371D01*
X0035503Y0108389D01*
X0035448Y0108412D01*
X0035394Y0108437D01*
X0035342Y0108467D01*
X0035292Y0108499D01*
X0035245Y0108535D01*
X0035199Y0108573D01*
X0035157Y0108615D01*
X0035117Y0108659D01*
X0035080Y0108705D01*
X0035046Y0108754D01*
X0035015Y0108805D01*
X0034988Y0108858D01*
X0034964Y0108913D01*
X0032831Y0108379D02*
X0032781Y0108524D01*
X0032735Y0108671D01*
X0032692Y0108818D01*
X0032653Y0108967D01*
X0032618Y0109117D01*
X0032586Y0109267D01*
X0032559Y0109418D01*
X0032535Y0109570D01*
X0032516Y0109722D01*
X0032500Y0109875D01*
X0032488Y0110028D01*
X0032480Y0110181D01*
X0032476Y0110335D01*
X0033542Y0113913D02*
X0038876Y0113913D01*
X0036742Y0113202D02*
X0036742Y0115335D01*
X0035320Y0117610D02*
X0033542Y0117610D01*
X0034609Y0117610D02*
X0034609Y0120455D01*
X0035320Y0120455D01*
X0035394Y0120453D01*
X0035469Y0120447D01*
X0035542Y0120437D01*
X0035616Y0120424D01*
X0035688Y0120407D01*
X0035759Y0120385D01*
X0035830Y0120361D01*
X0035898Y0120332D01*
X0035966Y0120300D01*
X0036031Y0120264D01*
X0036094Y0120226D01*
X0036156Y0120183D01*
X0036215Y0120138D01*
X0036272Y0120090D01*
X0036326Y0120039D01*
X0036377Y0119985D01*
X0036425Y0119928D01*
X0036470Y0119869D01*
X0036513Y0119807D01*
X0036551Y0119744D01*
X0036587Y0119679D01*
X0036619Y0119611D01*
X0036648Y0119543D01*
X0036672Y0119472D01*
X0036694Y0119401D01*
X0036711Y0119329D01*
X0036724Y0119255D01*
X0036734Y0119182D01*
X0036740Y0119107D01*
X0036742Y0119033D01*
X0036740Y0118959D01*
X0036734Y0118884D01*
X0036724Y0118811D01*
X0036711Y0118737D01*
X0036694Y0118665D01*
X0036672Y0118594D01*
X0036648Y0118523D01*
X0036619Y0118455D01*
X0036587Y0118387D01*
X0036551Y0118322D01*
X0036513Y0118259D01*
X0036470Y0118197D01*
X0036425Y0118138D01*
X0036377Y0118081D01*
X0036326Y0118027D01*
X0036272Y0117976D01*
X0036215Y0117928D01*
X0036156Y0117883D01*
X0036094Y0117840D01*
X0036031Y0117802D01*
X0035966Y0117766D01*
X0035898Y0117734D01*
X0035830Y0117705D01*
X0035759Y0117681D01*
X0035688Y0117659D01*
X0035616Y0117642D01*
X0035542Y0117629D01*
X0035469Y0117619D01*
X0035394Y0117613D01*
X0035320Y0117611D01*
X0033542Y0117610D02*
X0033478Y0117612D01*
X0033413Y0117618D01*
X0033350Y0117627D01*
X0033287Y0117641D01*
X0033225Y0117658D01*
X0033164Y0117679D01*
X0033104Y0117704D01*
X0033046Y0117732D01*
X0032990Y0117764D01*
X0032936Y0117799D01*
X0032884Y0117837D01*
X0032834Y0117878D01*
X0032788Y0117923D01*
X0032743Y0117969D01*
X0032702Y0118019D01*
X0032664Y0118071D01*
X0032629Y0118125D01*
X0032597Y0118181D01*
X0032569Y0118239D01*
X0032544Y0118299D01*
X0032523Y0118360D01*
X0032506Y0118422D01*
X0032492Y0118485D01*
X0032483Y0118548D01*
X0032477Y0118613D01*
X0032475Y0118677D01*
X0032476Y0118677D02*
X0032476Y0120455D01*
X0032476Y0123182D02*
X0036742Y0123182D01*
X0036742Y0125316D01*
X0036031Y0125316D01*
X0032476Y0115335D02*
X0032476Y0114980D01*
X0032475Y0114980D02*
X0032477Y0114916D01*
X0032483Y0114851D01*
X0032492Y0114788D01*
X0032506Y0114725D01*
X0032523Y0114663D01*
X0032544Y0114602D01*
X0032569Y0114542D01*
X0032597Y0114484D01*
X0032629Y0114428D01*
X0032664Y0114374D01*
X0032702Y0114322D01*
X0032743Y0114272D01*
X0032788Y0114226D01*
X0032834Y0114181D01*
X0032884Y0114140D01*
X0032936Y0114102D01*
X0032990Y0114067D01*
X0033046Y0114035D01*
X0033104Y0114007D01*
X0033164Y0113982D01*
X0033225Y0113961D01*
X0033287Y0113944D01*
X0033350Y0113930D01*
X0033413Y0113921D01*
X0033478Y0113915D01*
X0033542Y0113913D01*
X0032476Y0061513D02*
X0032480Y0061359D01*
X0032488Y0061206D01*
X0032500Y0061053D01*
X0032516Y0060900D01*
X0032535Y0060748D01*
X0032559Y0060596D01*
X0032586Y0060445D01*
X0032618Y0060295D01*
X0032653Y0060145D01*
X0032692Y0059996D01*
X0032735Y0059849D01*
X0032781Y0059702D01*
X0032831Y0059557D01*
X0032476Y0056180D02*
X0032480Y0056026D01*
X0032488Y0055873D01*
X0032500Y0055720D01*
X0032516Y0055567D01*
X0032535Y0055415D01*
X0032559Y0055263D01*
X0032586Y0055112D01*
X0032618Y0054962D01*
X0032653Y0054812D01*
X0032692Y0054663D01*
X0032735Y0054516D01*
X0032781Y0054369D01*
X0032831Y0054224D01*
X0032476Y0020446D02*
X0032476Y0018668D01*
X0038876Y0018668D01*
X0038876Y0020446D01*
X0038875Y0020446D02*
X0038873Y0020520D01*
X0038867Y0020595D01*
X0038857Y0020668D01*
X0038844Y0020742D01*
X0038827Y0020814D01*
X0038805Y0020885D01*
X0038781Y0020956D01*
X0038752Y0021024D01*
X0038720Y0021092D01*
X0038684Y0021157D01*
X0038646Y0021220D01*
X0038603Y0021282D01*
X0038558Y0021341D01*
X0038510Y0021398D01*
X0038459Y0021452D01*
X0038405Y0021503D01*
X0038348Y0021551D01*
X0038289Y0021596D01*
X0038227Y0021639D01*
X0038164Y0021677D01*
X0038099Y0021713D01*
X0038031Y0021745D01*
X0037963Y0021774D01*
X0037892Y0021798D01*
X0037821Y0021820D01*
X0037749Y0021837D01*
X0037675Y0021850D01*
X0037602Y0021860D01*
X0037527Y0021866D01*
X0037453Y0021868D01*
X0037379Y0021866D01*
X0037304Y0021860D01*
X0037231Y0021850D01*
X0037157Y0021837D01*
X0037085Y0021820D01*
X0037014Y0021798D01*
X0036943Y0021774D01*
X0036875Y0021745D01*
X0036807Y0021713D01*
X0036742Y0021677D01*
X0036679Y0021639D01*
X0036617Y0021596D01*
X0036558Y0021551D01*
X0036501Y0021503D01*
X0036447Y0021452D01*
X0036396Y0021398D01*
X0036348Y0021341D01*
X0036303Y0021282D01*
X0036260Y0021220D01*
X0036222Y0021157D01*
X0036186Y0021092D01*
X0036154Y0021024D01*
X0036125Y0020956D01*
X0036101Y0020885D01*
X0036079Y0020814D01*
X0036062Y0020742D01*
X0036049Y0020668D01*
X0036039Y0020595D01*
X0036033Y0020520D01*
X0036031Y0020446D01*
X0036031Y0018668D01*
X0036031Y0020446D02*
X0036029Y0020529D01*
X0036023Y0020612D01*
X0036013Y0020695D01*
X0036000Y0020778D01*
X0035982Y0020859D01*
X0035961Y0020940D01*
X0035936Y0021019D01*
X0035907Y0021097D01*
X0035875Y0021174D01*
X0035839Y0021249D01*
X0035800Y0021323D01*
X0035757Y0021394D01*
X0035711Y0021464D01*
X0035661Y0021531D01*
X0035609Y0021596D01*
X0035554Y0021658D01*
X0035495Y0021718D01*
X0035434Y0021775D01*
X0035371Y0021829D01*
X0035305Y0021880D01*
X0035236Y0021927D01*
X0035166Y0021972D01*
X0035093Y0022013D01*
X0035019Y0022050D01*
X0034943Y0022085D01*
X0034865Y0022115D01*
X0034787Y0022142D01*
X0034706Y0022165D01*
X0034625Y0022185D01*
X0034543Y0022200D01*
X0034461Y0022212D01*
X0034378Y0022220D01*
X0034295Y0022224D01*
X0034211Y0022224D01*
X0034128Y0022220D01*
X0034045Y0022212D01*
X0033963Y0022200D01*
X0033881Y0022185D01*
X0033800Y0022165D01*
X0033719Y0022142D01*
X0033641Y0022115D01*
X0033563Y0022085D01*
X0033487Y0022050D01*
X0033413Y0022013D01*
X0033340Y0021972D01*
X0033270Y0021927D01*
X0033201Y0021880D01*
X0033135Y0021829D01*
X0033072Y0021775D01*
X0033011Y0021718D01*
X0032952Y0021658D01*
X0032897Y0021596D01*
X0032845Y0021531D01*
X0032795Y0021464D01*
X0032749Y0021394D01*
X0032706Y0021323D01*
X0032667Y0021249D01*
X0032631Y0021174D01*
X0032599Y0021097D01*
X0032570Y0021019D01*
X0032545Y0020940D01*
X0032524Y0020859D01*
X0032506Y0020778D01*
X0032493Y0020695D01*
X0032483Y0020612D01*
X0032477Y0020529D01*
X0032475Y0020446D01*
D11*
X0071935Y0056387D02*
X0076535Y0056387D01*
X0076535Y0057664D01*
X0076533Y0057734D01*
X0076527Y0057805D01*
X0076518Y0057874D01*
X0076504Y0057943D01*
X0076487Y0058012D01*
X0076466Y0058079D01*
X0076441Y0058145D01*
X0076413Y0058209D01*
X0076381Y0058272D01*
X0076346Y0058333D01*
X0076307Y0058392D01*
X0076266Y0058449D01*
X0076221Y0058503D01*
X0076173Y0058555D01*
X0076123Y0058604D01*
X0076069Y0058651D01*
X0076014Y0058694D01*
X0075956Y0058734D01*
X0075896Y0058771D01*
X0075834Y0058804D01*
X0075770Y0058834D01*
X0075705Y0058861D01*
X0075639Y0058884D01*
X0075571Y0058903D01*
X0075502Y0058918D01*
X0075433Y0058930D01*
X0075363Y0058938D01*
X0075292Y0058942D01*
X0075222Y0058942D01*
X0075151Y0058938D01*
X0075081Y0058930D01*
X0075012Y0058918D01*
X0074943Y0058903D01*
X0074875Y0058884D01*
X0074809Y0058861D01*
X0074744Y0058834D01*
X0074680Y0058804D01*
X0074618Y0058771D01*
X0074558Y0058734D01*
X0074500Y0058694D01*
X0074445Y0058651D01*
X0074391Y0058604D01*
X0074341Y0058555D01*
X0074293Y0058503D01*
X0074248Y0058449D01*
X0074207Y0058392D01*
X0074168Y0058333D01*
X0074133Y0058272D01*
X0074101Y0058209D01*
X0074073Y0058145D01*
X0074048Y0058079D01*
X0074027Y0058012D01*
X0074010Y0057943D01*
X0073996Y0057874D01*
X0073987Y0057805D01*
X0073981Y0057734D01*
X0073979Y0057664D01*
X0073979Y0056387D01*
X0073979Y0057920D02*
X0071935Y0058942D01*
X0071935Y0060858D02*
X0071935Y0063413D01*
X0071935Y0065358D02*
X0071935Y0067913D01*
X0071935Y0066635D02*
X0076535Y0066635D01*
X0075512Y0065358D01*
X0074490Y0063030D02*
X0071935Y0060858D01*
X0075512Y0060858D02*
X0075582Y0060883D01*
X0075651Y0060911D01*
X0075718Y0060942D01*
X0075784Y0060977D01*
X0075847Y0061015D01*
X0075909Y0061057D01*
X0075969Y0061101D01*
X0076026Y0061148D01*
X0076081Y0061198D01*
X0076133Y0061251D01*
X0076183Y0061307D01*
X0076229Y0061365D01*
X0076273Y0061425D01*
X0076314Y0061487D01*
X0076351Y0061551D01*
X0076385Y0061617D01*
X0076416Y0061685D01*
X0076443Y0061754D01*
X0076467Y0061824D01*
X0076488Y0061895D01*
X0076504Y0061968D01*
X0076517Y0062041D01*
X0076527Y0062115D01*
X0076532Y0062189D01*
X0076534Y0062263D01*
X0076535Y0062263D02*
X0076533Y0062330D01*
X0076527Y0062397D01*
X0076518Y0062463D01*
X0076504Y0062528D01*
X0076487Y0062593D01*
X0076466Y0062656D01*
X0076441Y0062718D01*
X0076413Y0062779D01*
X0076381Y0062838D01*
X0076346Y0062895D01*
X0076307Y0062950D01*
X0076266Y0063002D01*
X0076221Y0063052D01*
X0076174Y0063099D01*
X0076124Y0063144D01*
X0076072Y0063185D01*
X0076017Y0063224D01*
X0075960Y0063259D01*
X0075901Y0063291D01*
X0075840Y0063319D01*
X0075778Y0063344D01*
X0075715Y0063365D01*
X0075650Y0063382D01*
X0075585Y0063396D01*
X0075519Y0063405D01*
X0075452Y0063411D01*
X0075385Y0063413D01*
X0075318Y0063411D01*
X0075252Y0063406D01*
X0075186Y0063397D01*
X0075120Y0063384D01*
X0075056Y0063368D01*
X0074992Y0063349D01*
X0074929Y0063326D01*
X0074868Y0063300D01*
X0074808Y0063270D01*
X0074750Y0063237D01*
X0074694Y0063202D01*
X0074640Y0063163D01*
X0074588Y0063121D01*
X0074538Y0063077D01*
X0074491Y0063030D01*
X0079809Y0062174D02*
X0079809Y0059618D01*
X0082364Y0061790D01*
X0084408Y0061024D02*
X0084406Y0060950D01*
X0084401Y0060876D01*
X0084391Y0060802D01*
X0084378Y0060729D01*
X0084362Y0060656D01*
X0084341Y0060585D01*
X0084317Y0060515D01*
X0084290Y0060446D01*
X0084259Y0060378D01*
X0084225Y0060312D01*
X0084188Y0060248D01*
X0084147Y0060186D01*
X0084103Y0060126D01*
X0084057Y0060068D01*
X0084007Y0060012D01*
X0083955Y0059959D01*
X0083900Y0059909D01*
X0083843Y0059862D01*
X0083783Y0059818D01*
X0083721Y0059776D01*
X0083658Y0059738D01*
X0083592Y0059703D01*
X0083525Y0059672D01*
X0083456Y0059644D01*
X0083386Y0059619D01*
X0082365Y0061790D02*
X0082412Y0061837D01*
X0082462Y0061881D01*
X0082514Y0061923D01*
X0082568Y0061962D01*
X0082624Y0061997D01*
X0082682Y0062030D01*
X0082742Y0062060D01*
X0082803Y0062086D01*
X0082866Y0062109D01*
X0082930Y0062128D01*
X0082994Y0062144D01*
X0083060Y0062157D01*
X0083126Y0062166D01*
X0083192Y0062171D01*
X0083259Y0062173D01*
X0083259Y0062174D02*
X0083326Y0062172D01*
X0083393Y0062166D01*
X0083459Y0062157D01*
X0083524Y0062143D01*
X0083589Y0062126D01*
X0083652Y0062105D01*
X0083714Y0062080D01*
X0083775Y0062052D01*
X0083834Y0062020D01*
X0083891Y0061985D01*
X0083946Y0061946D01*
X0083998Y0061905D01*
X0084048Y0061860D01*
X0084095Y0061813D01*
X0084140Y0061763D01*
X0084181Y0061711D01*
X0084220Y0061656D01*
X0084255Y0061599D01*
X0084287Y0061540D01*
X0084315Y0061479D01*
X0084340Y0061417D01*
X0084361Y0061354D01*
X0084378Y0061289D01*
X0084392Y0061224D01*
X0084401Y0061158D01*
X0084407Y0061091D01*
X0084409Y0061024D01*
X0084409Y0057900D02*
X0084409Y0056877D01*
X0084408Y0056877D02*
X0084406Y0056815D01*
X0084401Y0056754D01*
X0084391Y0056693D01*
X0084378Y0056632D01*
X0084362Y0056573D01*
X0084342Y0056515D01*
X0084318Y0056458D01*
X0084291Y0056402D01*
X0084261Y0056348D01*
X0084227Y0056296D01*
X0084190Y0056247D01*
X0084151Y0056199D01*
X0084109Y0056154D01*
X0084064Y0056112D01*
X0084016Y0056072D01*
X0083967Y0056036D01*
X0083915Y0056002D01*
X0083861Y0055972D01*
X0083805Y0055945D01*
X0083748Y0055921D01*
X0083690Y0055901D01*
X0083631Y0055885D01*
X0083570Y0055872D01*
X0083509Y0055862D01*
X0083448Y0055857D01*
X0083386Y0055855D01*
X0080831Y0055855D01*
X0080769Y0055857D01*
X0080708Y0055862D01*
X0080647Y0055872D01*
X0080586Y0055885D01*
X0080527Y0055901D01*
X0080469Y0055921D01*
X0080412Y0055945D01*
X0080356Y0055972D01*
X0080302Y0056002D01*
X0080250Y0056036D01*
X0080201Y0056072D01*
X0080153Y0056112D01*
X0080108Y0056154D01*
X0080066Y0056199D01*
X0080026Y0056247D01*
X0079990Y0056296D01*
X0079956Y0056348D01*
X0079926Y0056402D01*
X0079899Y0056458D01*
X0079875Y0056515D01*
X0079855Y0056573D01*
X0079839Y0056632D01*
X0079826Y0056693D01*
X0079816Y0056754D01*
X0079811Y0056815D01*
X0079809Y0056877D01*
X0079809Y0057900D01*
X0079809Y0064118D02*
X0079809Y0066674D01*
X0079809Y0065396D02*
X0084409Y0065396D01*
X0083386Y0064118D01*
X0081574Y0072509D02*
X0080551Y0072509D01*
X0081574Y0072509D02*
X0081636Y0072511D01*
X0081697Y0072516D01*
X0081758Y0072526D01*
X0081819Y0072539D01*
X0081878Y0072555D01*
X0081936Y0072575D01*
X0081993Y0072599D01*
X0082049Y0072626D01*
X0082103Y0072656D01*
X0082155Y0072690D01*
X0082204Y0072726D01*
X0082252Y0072766D01*
X0082297Y0072808D01*
X0082339Y0072853D01*
X0082379Y0072901D01*
X0082415Y0072950D01*
X0082449Y0073002D01*
X0082479Y0073056D01*
X0082506Y0073112D01*
X0082530Y0073169D01*
X0082550Y0073227D01*
X0082566Y0073286D01*
X0082579Y0073347D01*
X0082589Y0073408D01*
X0082594Y0073469D01*
X0082596Y0073531D01*
X0082596Y0076086D01*
X0082594Y0076148D01*
X0082589Y0076209D01*
X0082579Y0076270D01*
X0082566Y0076331D01*
X0082550Y0076390D01*
X0082530Y0076448D01*
X0082506Y0076505D01*
X0082479Y0076561D01*
X0082449Y0076615D01*
X0082415Y0076667D01*
X0082379Y0076716D01*
X0082339Y0076764D01*
X0082297Y0076809D01*
X0082252Y0076851D01*
X0082204Y0076891D01*
X0082155Y0076927D01*
X0082103Y0076961D01*
X0082049Y0076991D01*
X0081993Y0077018D01*
X0081936Y0077042D01*
X0081878Y0077062D01*
X0081819Y0077078D01*
X0081758Y0077091D01*
X0081697Y0077101D01*
X0081636Y0077106D01*
X0081574Y0077108D01*
X0081574Y0077109D02*
X0080551Y0077109D01*
X0078833Y0076086D02*
X0077555Y0077109D01*
X0077555Y0072509D01*
X0078833Y0072509D02*
X0076277Y0072509D01*
X0074333Y0072509D02*
X0073055Y0072509D01*
X0073055Y0072508D02*
X0072985Y0072510D01*
X0072914Y0072516D01*
X0072845Y0072525D01*
X0072776Y0072539D01*
X0072707Y0072556D01*
X0072640Y0072577D01*
X0072574Y0072602D01*
X0072510Y0072630D01*
X0072447Y0072662D01*
X0072386Y0072697D01*
X0072327Y0072736D01*
X0072270Y0072777D01*
X0072216Y0072822D01*
X0072164Y0072870D01*
X0072115Y0072920D01*
X0072068Y0072974D01*
X0072025Y0073029D01*
X0071985Y0073087D01*
X0071948Y0073147D01*
X0071915Y0073209D01*
X0071885Y0073273D01*
X0071858Y0073338D01*
X0071835Y0073404D01*
X0071816Y0073472D01*
X0071801Y0073541D01*
X0071789Y0073610D01*
X0071781Y0073680D01*
X0071777Y0073751D01*
X0071777Y0073821D01*
X0071781Y0073892D01*
X0071789Y0073962D01*
X0071801Y0074031D01*
X0071816Y0074100D01*
X0071835Y0074168D01*
X0071858Y0074234D01*
X0071885Y0074299D01*
X0071915Y0074363D01*
X0071948Y0074425D01*
X0071985Y0074485D01*
X0072025Y0074543D01*
X0072068Y0074598D01*
X0072115Y0074652D01*
X0072164Y0074702D01*
X0072216Y0074750D01*
X0072270Y0074795D01*
X0072327Y0074836D01*
X0072386Y0074875D01*
X0072447Y0074910D01*
X0072510Y0074942D01*
X0072574Y0074970D01*
X0072640Y0074995D01*
X0072707Y0075016D01*
X0072776Y0075033D01*
X0072845Y0075047D01*
X0072914Y0075056D01*
X0072985Y0075062D01*
X0073055Y0075064D01*
X0072799Y0075064D02*
X0073822Y0075064D01*
X0072799Y0075064D02*
X0072736Y0075066D01*
X0072673Y0075072D01*
X0072611Y0075081D01*
X0072550Y0075095D01*
X0072489Y0075112D01*
X0072430Y0075133D01*
X0072372Y0075158D01*
X0072315Y0075186D01*
X0072261Y0075217D01*
X0072209Y0075252D01*
X0072158Y0075290D01*
X0072110Y0075331D01*
X0072065Y0075375D01*
X0072023Y0075421D01*
X0071983Y0075470D01*
X0071947Y0075521D01*
X0071914Y0075575D01*
X0071884Y0075630D01*
X0071858Y0075688D01*
X0071835Y0075746D01*
X0071816Y0075806D01*
X0071801Y0075867D01*
X0071789Y0075929D01*
X0071781Y0075992D01*
X0071777Y0076055D01*
X0071777Y0076117D01*
X0071781Y0076180D01*
X0071789Y0076243D01*
X0071801Y0076305D01*
X0071816Y0076366D01*
X0071835Y0076426D01*
X0071858Y0076484D01*
X0071884Y0076542D01*
X0071914Y0076597D01*
X0071947Y0076651D01*
X0071983Y0076702D01*
X0072023Y0076751D01*
X0072065Y0076797D01*
X0072110Y0076841D01*
X0072158Y0076882D01*
X0072209Y0076920D01*
X0072261Y0076955D01*
X0072315Y0076986D01*
X0072372Y0077014D01*
X0072430Y0077039D01*
X0072489Y0077060D01*
X0072550Y0077077D01*
X0072611Y0077091D01*
X0072673Y0077100D01*
X0072736Y0077106D01*
X0072799Y0077108D01*
X0072799Y0077109D02*
X0074333Y0077109D01*
X0074333Y0080383D02*
X0071777Y0080383D01*
X0073055Y0080383D02*
X0073055Y0084983D01*
X0074333Y0083960D01*
X0077555Y0084983D02*
X0077555Y0080383D01*
X0078833Y0080383D02*
X0076277Y0080383D01*
X0078833Y0083960D02*
X0077555Y0084983D01*
X0080551Y0084983D02*
X0081574Y0084983D01*
X0081574Y0084982D02*
X0081636Y0084980D01*
X0081697Y0084975D01*
X0081758Y0084965D01*
X0081819Y0084952D01*
X0081878Y0084936D01*
X0081936Y0084916D01*
X0081993Y0084892D01*
X0082049Y0084865D01*
X0082103Y0084835D01*
X0082155Y0084801D01*
X0082204Y0084765D01*
X0082252Y0084725D01*
X0082297Y0084683D01*
X0082339Y0084638D01*
X0082379Y0084590D01*
X0082415Y0084541D01*
X0082449Y0084489D01*
X0082479Y0084435D01*
X0082506Y0084379D01*
X0082530Y0084322D01*
X0082550Y0084264D01*
X0082566Y0084205D01*
X0082579Y0084144D01*
X0082589Y0084083D01*
X0082594Y0084022D01*
X0082596Y0083960D01*
X0082596Y0081405D01*
X0082594Y0081343D01*
X0082589Y0081282D01*
X0082579Y0081221D01*
X0082566Y0081160D01*
X0082550Y0081101D01*
X0082530Y0081043D01*
X0082506Y0080986D01*
X0082479Y0080930D01*
X0082449Y0080876D01*
X0082415Y0080824D01*
X0082379Y0080775D01*
X0082339Y0080727D01*
X0082297Y0080682D01*
X0082252Y0080640D01*
X0082204Y0080600D01*
X0082155Y0080564D01*
X0082103Y0080530D01*
X0082049Y0080500D01*
X0081993Y0080473D01*
X0081936Y0080449D01*
X0081878Y0080429D01*
X0081819Y0080413D01*
X0081758Y0080400D01*
X0081697Y0080390D01*
X0081636Y0080385D01*
X0081574Y0080383D01*
X0080551Y0080383D01*
X0067598Y0080657D02*
X0067598Y0083212D01*
X0067597Y0083212D02*
X0067595Y0083274D01*
X0067590Y0083335D01*
X0067580Y0083396D01*
X0067567Y0083457D01*
X0067551Y0083516D01*
X0067531Y0083574D01*
X0067507Y0083631D01*
X0067480Y0083687D01*
X0067450Y0083741D01*
X0067416Y0083793D01*
X0067380Y0083842D01*
X0067340Y0083890D01*
X0067298Y0083935D01*
X0067253Y0083977D01*
X0067205Y0084017D01*
X0067156Y0084053D01*
X0067104Y0084087D01*
X0067050Y0084117D01*
X0066994Y0084144D01*
X0066937Y0084168D01*
X0066879Y0084188D01*
X0066820Y0084204D01*
X0066759Y0084217D01*
X0066698Y0084227D01*
X0066637Y0084232D01*
X0066575Y0084234D01*
X0066575Y0084235D02*
X0065553Y0084235D01*
X0063835Y0083212D02*
X0062557Y0084235D01*
X0062557Y0079635D01*
X0063835Y0079635D02*
X0061279Y0079635D01*
X0059335Y0079635D02*
X0056779Y0079635D01*
X0059335Y0079635D02*
X0057162Y0082190D01*
X0057929Y0084234D02*
X0058003Y0084232D01*
X0058077Y0084227D01*
X0058151Y0084217D01*
X0058224Y0084204D01*
X0058297Y0084188D01*
X0058368Y0084167D01*
X0058438Y0084143D01*
X0058507Y0084116D01*
X0058575Y0084085D01*
X0058641Y0084051D01*
X0058705Y0084014D01*
X0058767Y0083973D01*
X0058828Y0083929D01*
X0058885Y0083883D01*
X0058941Y0083833D01*
X0058994Y0083781D01*
X0059044Y0083726D01*
X0059091Y0083669D01*
X0059135Y0083609D01*
X0059177Y0083547D01*
X0059215Y0083484D01*
X0059250Y0083418D01*
X0059281Y0083351D01*
X0059309Y0083282D01*
X0059334Y0083212D01*
X0057162Y0082191D02*
X0057115Y0082238D01*
X0057071Y0082288D01*
X0057029Y0082340D01*
X0056990Y0082394D01*
X0056955Y0082450D01*
X0056922Y0082508D01*
X0056892Y0082568D01*
X0056866Y0082629D01*
X0056843Y0082692D01*
X0056824Y0082756D01*
X0056808Y0082820D01*
X0056795Y0082886D01*
X0056786Y0082952D01*
X0056781Y0083018D01*
X0056779Y0083085D01*
X0056781Y0083152D01*
X0056787Y0083219D01*
X0056796Y0083285D01*
X0056810Y0083350D01*
X0056827Y0083415D01*
X0056848Y0083478D01*
X0056873Y0083540D01*
X0056901Y0083601D01*
X0056933Y0083660D01*
X0056968Y0083717D01*
X0057007Y0083772D01*
X0057048Y0083824D01*
X0057093Y0083874D01*
X0057140Y0083921D01*
X0057190Y0083966D01*
X0057242Y0084007D01*
X0057297Y0084046D01*
X0057354Y0084081D01*
X0057413Y0084113D01*
X0057474Y0084141D01*
X0057536Y0084166D01*
X0057599Y0084187D01*
X0057664Y0084204D01*
X0057729Y0084218D01*
X0057795Y0084227D01*
X0057862Y0084233D01*
X0057929Y0084235D01*
X0065553Y0079635D02*
X0066575Y0079635D01*
X0066637Y0079637D01*
X0066698Y0079642D01*
X0066759Y0079652D01*
X0066820Y0079665D01*
X0066879Y0079681D01*
X0066937Y0079701D01*
X0066994Y0079725D01*
X0067050Y0079752D01*
X0067104Y0079782D01*
X0067156Y0079816D01*
X0067205Y0079852D01*
X0067253Y0079892D01*
X0067298Y0079934D01*
X0067340Y0079979D01*
X0067380Y0080027D01*
X0067416Y0080076D01*
X0067450Y0080128D01*
X0067480Y0080182D01*
X0067507Y0080238D01*
X0067531Y0080295D01*
X0067551Y0080353D01*
X0067567Y0080412D01*
X0067580Y0080473D01*
X0067590Y0080534D01*
X0067595Y0080595D01*
X0067597Y0080657D01*
X0064607Y0076361D02*
X0063585Y0076361D01*
X0064607Y0076360D02*
X0064669Y0076358D01*
X0064730Y0076353D01*
X0064791Y0076343D01*
X0064852Y0076330D01*
X0064911Y0076314D01*
X0064969Y0076294D01*
X0065026Y0076270D01*
X0065082Y0076243D01*
X0065136Y0076213D01*
X0065188Y0076179D01*
X0065237Y0076143D01*
X0065285Y0076103D01*
X0065330Y0076061D01*
X0065372Y0076016D01*
X0065412Y0075968D01*
X0065448Y0075919D01*
X0065482Y0075867D01*
X0065512Y0075813D01*
X0065539Y0075757D01*
X0065563Y0075700D01*
X0065583Y0075642D01*
X0065599Y0075583D01*
X0065612Y0075522D01*
X0065622Y0075461D01*
X0065627Y0075400D01*
X0065629Y0075338D01*
X0065629Y0072783D01*
X0065627Y0072721D01*
X0065622Y0072660D01*
X0065612Y0072599D01*
X0065599Y0072538D01*
X0065583Y0072479D01*
X0065563Y0072421D01*
X0065539Y0072364D01*
X0065512Y0072308D01*
X0065482Y0072254D01*
X0065448Y0072202D01*
X0065412Y0072153D01*
X0065372Y0072105D01*
X0065330Y0072060D01*
X0065285Y0072018D01*
X0065237Y0071978D01*
X0065188Y0071942D01*
X0065136Y0071908D01*
X0065082Y0071878D01*
X0065026Y0071851D01*
X0064969Y0071827D01*
X0064911Y0071807D01*
X0064852Y0071791D01*
X0064791Y0071778D01*
X0064730Y0071768D01*
X0064669Y0071763D01*
X0064607Y0071761D01*
X0063585Y0071761D01*
X0061866Y0073038D02*
X0061864Y0072968D01*
X0061858Y0072897D01*
X0061849Y0072828D01*
X0061835Y0072759D01*
X0061818Y0072690D01*
X0061797Y0072623D01*
X0061772Y0072557D01*
X0061744Y0072493D01*
X0061712Y0072430D01*
X0061677Y0072369D01*
X0061638Y0072310D01*
X0061597Y0072253D01*
X0061552Y0072199D01*
X0061504Y0072147D01*
X0061454Y0072098D01*
X0061400Y0072051D01*
X0061345Y0072008D01*
X0061287Y0071968D01*
X0061227Y0071931D01*
X0061165Y0071898D01*
X0061101Y0071868D01*
X0061036Y0071841D01*
X0060970Y0071818D01*
X0060902Y0071799D01*
X0060833Y0071784D01*
X0060764Y0071772D01*
X0060694Y0071764D01*
X0060623Y0071760D01*
X0060553Y0071760D01*
X0060482Y0071764D01*
X0060412Y0071772D01*
X0060343Y0071784D01*
X0060274Y0071799D01*
X0060206Y0071818D01*
X0060140Y0071841D01*
X0060075Y0071868D01*
X0060011Y0071898D01*
X0059949Y0071931D01*
X0059889Y0071968D01*
X0059831Y0072008D01*
X0059776Y0072051D01*
X0059722Y0072098D01*
X0059672Y0072147D01*
X0059624Y0072199D01*
X0059579Y0072253D01*
X0059538Y0072310D01*
X0059499Y0072369D01*
X0059464Y0072430D01*
X0059432Y0072493D01*
X0059404Y0072557D01*
X0059379Y0072623D01*
X0059358Y0072690D01*
X0059341Y0072759D01*
X0059327Y0072828D01*
X0059318Y0072897D01*
X0059312Y0072968D01*
X0059310Y0073038D01*
X0059312Y0073108D01*
X0059318Y0073179D01*
X0059327Y0073248D01*
X0059341Y0073317D01*
X0059358Y0073386D01*
X0059379Y0073453D01*
X0059404Y0073519D01*
X0059432Y0073583D01*
X0059464Y0073646D01*
X0059499Y0073707D01*
X0059538Y0073766D01*
X0059579Y0073823D01*
X0059624Y0073877D01*
X0059672Y0073929D01*
X0059722Y0073978D01*
X0059776Y0074025D01*
X0059831Y0074068D01*
X0059889Y0074108D01*
X0059949Y0074145D01*
X0060011Y0074178D01*
X0060075Y0074208D01*
X0060140Y0074235D01*
X0060206Y0074258D01*
X0060274Y0074277D01*
X0060343Y0074292D01*
X0060412Y0074304D01*
X0060482Y0074312D01*
X0060553Y0074316D01*
X0060623Y0074316D01*
X0060694Y0074312D01*
X0060764Y0074304D01*
X0060833Y0074292D01*
X0060902Y0074277D01*
X0060970Y0074258D01*
X0061036Y0074235D01*
X0061101Y0074208D01*
X0061165Y0074178D01*
X0061227Y0074145D01*
X0061287Y0074108D01*
X0061345Y0074068D01*
X0061400Y0074025D01*
X0061454Y0073978D01*
X0061504Y0073929D01*
X0061552Y0073877D01*
X0061597Y0073823D01*
X0061638Y0073766D01*
X0061677Y0073707D01*
X0061712Y0073646D01*
X0061744Y0073583D01*
X0061772Y0073519D01*
X0061797Y0073453D01*
X0061818Y0073386D01*
X0061835Y0073317D01*
X0061849Y0073248D01*
X0061858Y0073179D01*
X0061864Y0073108D01*
X0061866Y0073038D01*
X0061610Y0075338D02*
X0061608Y0075275D01*
X0061602Y0075212D01*
X0061593Y0075150D01*
X0061579Y0075089D01*
X0061562Y0075028D01*
X0061541Y0074969D01*
X0061516Y0074911D01*
X0061488Y0074854D01*
X0061457Y0074800D01*
X0061422Y0074748D01*
X0061384Y0074697D01*
X0061343Y0074649D01*
X0061299Y0074604D01*
X0061253Y0074562D01*
X0061204Y0074522D01*
X0061153Y0074486D01*
X0061099Y0074453D01*
X0061044Y0074423D01*
X0060986Y0074397D01*
X0060928Y0074374D01*
X0060868Y0074355D01*
X0060807Y0074340D01*
X0060745Y0074328D01*
X0060682Y0074320D01*
X0060619Y0074316D01*
X0060557Y0074316D01*
X0060494Y0074320D01*
X0060431Y0074328D01*
X0060369Y0074340D01*
X0060308Y0074355D01*
X0060248Y0074374D01*
X0060190Y0074397D01*
X0060132Y0074423D01*
X0060077Y0074453D01*
X0060023Y0074486D01*
X0059972Y0074522D01*
X0059923Y0074562D01*
X0059877Y0074604D01*
X0059833Y0074649D01*
X0059792Y0074697D01*
X0059754Y0074748D01*
X0059719Y0074800D01*
X0059688Y0074854D01*
X0059660Y0074911D01*
X0059635Y0074969D01*
X0059614Y0075028D01*
X0059597Y0075089D01*
X0059583Y0075150D01*
X0059574Y0075212D01*
X0059568Y0075275D01*
X0059566Y0075338D01*
X0059568Y0075401D01*
X0059574Y0075464D01*
X0059583Y0075526D01*
X0059597Y0075587D01*
X0059614Y0075648D01*
X0059635Y0075707D01*
X0059660Y0075765D01*
X0059688Y0075822D01*
X0059719Y0075876D01*
X0059754Y0075928D01*
X0059792Y0075979D01*
X0059833Y0076027D01*
X0059877Y0076072D01*
X0059923Y0076114D01*
X0059972Y0076154D01*
X0060023Y0076190D01*
X0060077Y0076223D01*
X0060132Y0076253D01*
X0060190Y0076279D01*
X0060248Y0076302D01*
X0060308Y0076321D01*
X0060369Y0076336D01*
X0060431Y0076348D01*
X0060494Y0076356D01*
X0060557Y0076360D01*
X0060619Y0076360D01*
X0060682Y0076356D01*
X0060745Y0076348D01*
X0060807Y0076336D01*
X0060868Y0076321D01*
X0060928Y0076302D01*
X0060986Y0076279D01*
X0061044Y0076253D01*
X0061099Y0076223D01*
X0061153Y0076190D01*
X0061204Y0076154D01*
X0061253Y0076114D01*
X0061299Y0076072D01*
X0061343Y0076027D01*
X0061384Y0075979D01*
X0061422Y0075928D01*
X0061457Y0075876D01*
X0061488Y0075822D01*
X0061516Y0075765D01*
X0061541Y0075707D01*
X0061562Y0075648D01*
X0061579Y0075587D01*
X0061593Y0075526D01*
X0061602Y0075464D01*
X0061608Y0075401D01*
X0061610Y0075338D01*
X0063585Y0068487D02*
X0064607Y0068487D01*
X0064607Y0068486D02*
X0064669Y0068484D01*
X0064730Y0068479D01*
X0064791Y0068469D01*
X0064852Y0068456D01*
X0064911Y0068440D01*
X0064969Y0068420D01*
X0065026Y0068396D01*
X0065082Y0068369D01*
X0065136Y0068339D01*
X0065188Y0068305D01*
X0065237Y0068269D01*
X0065285Y0068229D01*
X0065330Y0068187D01*
X0065372Y0068142D01*
X0065412Y0068094D01*
X0065448Y0068045D01*
X0065482Y0067993D01*
X0065512Y0067939D01*
X0065539Y0067883D01*
X0065563Y0067826D01*
X0065583Y0067768D01*
X0065599Y0067709D01*
X0065612Y0067648D01*
X0065622Y0067587D01*
X0065627Y0067526D01*
X0065629Y0067464D01*
X0065629Y0064909D01*
X0065627Y0064847D01*
X0065622Y0064786D01*
X0065612Y0064725D01*
X0065599Y0064664D01*
X0065583Y0064605D01*
X0065563Y0064547D01*
X0065539Y0064490D01*
X0065512Y0064434D01*
X0065482Y0064380D01*
X0065448Y0064328D01*
X0065412Y0064279D01*
X0065372Y0064231D01*
X0065330Y0064186D01*
X0065285Y0064144D01*
X0065237Y0064104D01*
X0065188Y0064068D01*
X0065136Y0064034D01*
X0065082Y0064004D01*
X0065026Y0063977D01*
X0064969Y0063953D01*
X0064911Y0063933D01*
X0064852Y0063917D01*
X0064791Y0063904D01*
X0064730Y0063894D01*
X0064669Y0063889D01*
X0064607Y0063887D01*
X0063585Y0063887D01*
X0061866Y0063887D02*
X0059311Y0063887D01*
X0061866Y0063887D02*
X0059694Y0066442D01*
X0060461Y0068486D02*
X0060535Y0068484D01*
X0060609Y0068479D01*
X0060683Y0068469D01*
X0060756Y0068456D01*
X0060829Y0068440D01*
X0060900Y0068419D01*
X0060970Y0068395D01*
X0061039Y0068368D01*
X0061107Y0068337D01*
X0061173Y0068303D01*
X0061237Y0068266D01*
X0061299Y0068225D01*
X0061360Y0068181D01*
X0061417Y0068135D01*
X0061473Y0068085D01*
X0061526Y0068033D01*
X0061576Y0067978D01*
X0061623Y0067921D01*
X0061667Y0067861D01*
X0061709Y0067799D01*
X0061747Y0067736D01*
X0061782Y0067670D01*
X0061813Y0067603D01*
X0061841Y0067534D01*
X0061866Y0067464D01*
X0059694Y0066443D02*
X0059647Y0066490D01*
X0059603Y0066540D01*
X0059561Y0066592D01*
X0059522Y0066646D01*
X0059487Y0066702D01*
X0059454Y0066760D01*
X0059424Y0066820D01*
X0059398Y0066881D01*
X0059375Y0066944D01*
X0059356Y0067008D01*
X0059340Y0067072D01*
X0059327Y0067138D01*
X0059318Y0067204D01*
X0059313Y0067270D01*
X0059311Y0067337D01*
X0059313Y0067404D01*
X0059319Y0067471D01*
X0059328Y0067537D01*
X0059342Y0067602D01*
X0059359Y0067667D01*
X0059380Y0067730D01*
X0059405Y0067792D01*
X0059433Y0067853D01*
X0059465Y0067912D01*
X0059500Y0067969D01*
X0059539Y0068024D01*
X0059580Y0068076D01*
X0059625Y0068126D01*
X0059672Y0068173D01*
X0059722Y0068218D01*
X0059774Y0068259D01*
X0059829Y0068298D01*
X0059886Y0068333D01*
X0059945Y0068365D01*
X0060006Y0068393D01*
X0060068Y0068418D01*
X0060131Y0068439D01*
X0060196Y0068456D01*
X0060261Y0068470D01*
X0060327Y0068479D01*
X0060394Y0068485D01*
X0060461Y0068487D01*
M02*
