G75*
%MOIN*%
%OFA0B0*%
%FSLAX25Y25*%
%IPPOS*%
%LPD*%
%AMOC8*
5,1,8,0,0,1.08239X$1,22.5*
%
%ADD10R,0.04724X0.04724*%
%ADD11R,0.05118X0.05906*%
%ADD12R,0.05906X0.01969*%
%ADD13R,0.01969X0.05906*%
%ADD14C,0.06000*%
%ADD15R,0.02165X0.04724*%
%ADD16R,0.05906X0.05118*%
%ADD17R,0.03937X0.04331*%
%ADD18R,0.07200X0.10000*%
%ADD19C,0.01200*%
%ADD20C,0.03962*%
D10*
X0011420Y0050813D03*
X0019687Y0050813D03*
X0019687Y0074435D03*
X0011420Y0074435D03*
X0011420Y0098057D03*
X0019687Y0098057D03*
D11*
X0027561Y0098057D03*
X0035042Y0098057D03*
X0035042Y0105931D03*
X0027561Y0105931D03*
X0027561Y0074435D03*
X0035042Y0074435D03*
X0035042Y0050813D03*
X0027561Y0050813D03*
D12*
X0047837Y0054750D03*
X0047837Y0057899D03*
X0047837Y0061049D03*
X0047837Y0064198D03*
X0047837Y0067348D03*
X0047837Y0070498D03*
X0047837Y0073647D03*
X0047837Y0076797D03*
X0047837Y0079946D03*
X0047837Y0083096D03*
X0047837Y0086246D03*
X0093506Y0086246D03*
X0093506Y0083096D03*
X0093506Y0079946D03*
X0093506Y0076797D03*
X0093506Y0073647D03*
X0093506Y0070498D03*
X0093506Y0067348D03*
X0093506Y0064198D03*
X0093506Y0061049D03*
X0093506Y0057899D03*
X0093506Y0054750D03*
D13*
X0086420Y0047663D03*
X0083270Y0047663D03*
X0080120Y0047663D03*
X0076971Y0047663D03*
X0073821Y0047663D03*
X0070672Y0047663D03*
X0067522Y0047663D03*
X0064372Y0047663D03*
X0061223Y0047663D03*
X0058073Y0047663D03*
X0054924Y0047663D03*
X0054924Y0093332D03*
X0058073Y0093332D03*
X0061223Y0093332D03*
X0064372Y0093332D03*
X0067522Y0093332D03*
X0070672Y0093332D03*
X0073821Y0093332D03*
X0076971Y0093332D03*
X0080120Y0093332D03*
X0083270Y0093332D03*
X0086420Y0093332D03*
D14*
X0080672Y0105647D02*
X0080672Y0111647D01*
X0070672Y0111647D02*
X0070672Y0105647D01*
X0060672Y0105647D02*
X0060672Y0111647D01*
X0065672Y0036096D02*
X0065672Y0030096D01*
X0075672Y0030096D02*
X0075672Y0036096D01*
X0085672Y0036096D02*
X0085672Y0030096D01*
X0095672Y0030096D02*
X0095672Y0036096D01*
X0055672Y0036096D02*
X0055672Y0030096D01*
X0045672Y0030096D02*
X0045672Y0036096D01*
D15*
X0042916Y0112623D03*
X0039176Y0112623D03*
X0035435Y0112623D03*
X0035435Y0122860D03*
X0042916Y0122860D03*
D16*
X0050987Y0121482D03*
X0050987Y0114002D03*
X0027365Y0114002D03*
X0027365Y0121482D03*
D17*
X0043703Y0105931D03*
X0050396Y0105931D03*
D18*
X0104136Y0082309D03*
X0104136Y0070498D03*
X0104136Y0058687D03*
D19*
X0008411Y0046976D02*
X0008411Y0025222D01*
X0026633Y0025222D01*
X0026633Y0025759D01*
X0027044Y0026751D01*
X0027804Y0027511D01*
X0028796Y0027922D01*
X0041810Y0027922D01*
X0041272Y0029221D01*
X0041272Y0036971D01*
X0041942Y0038588D01*
X0043179Y0039826D01*
X0044796Y0040496D01*
X0046547Y0040496D01*
X0048164Y0039826D01*
X0049402Y0038588D01*
X0050072Y0036971D01*
X0050072Y0029221D01*
X0049534Y0027922D01*
X0051810Y0027922D01*
X0051272Y0029221D01*
X0051272Y0036971D01*
X0051942Y0038588D01*
X0053179Y0039826D01*
X0054407Y0040335D01*
X0057331Y0043259D01*
X0057455Y0043310D01*
X0056509Y0043310D01*
X0056498Y0043321D01*
X0056488Y0043310D01*
X0053359Y0043310D01*
X0052539Y0044130D01*
X0052539Y0051196D01*
X0053359Y0052016D01*
X0056488Y0052016D01*
X0056498Y0052005D01*
X0056509Y0052016D01*
X0059637Y0052016D01*
X0059648Y0052005D01*
X0059659Y0052016D01*
X0062787Y0052016D01*
X0062798Y0052005D01*
X0062808Y0052016D01*
X0065937Y0052016D01*
X0065947Y0052005D01*
X0065958Y0052016D01*
X0069086Y0052016D01*
X0069097Y0052005D01*
X0069107Y0052016D01*
X0071121Y0052016D01*
X0071121Y0054696D01*
X0071532Y0055688D01*
X0074965Y0059121D01*
X0074965Y0059596D01*
X0075510Y0060912D01*
X0076517Y0061919D01*
X0077833Y0062465D01*
X0079258Y0062465D01*
X0080574Y0061919D01*
X0081582Y0060912D01*
X0082127Y0059596D01*
X0082127Y0058171D01*
X0081582Y0056855D01*
X0080574Y0055848D01*
X0079689Y0055481D01*
X0088925Y0055481D01*
X0089154Y0055387D01*
X0089154Y0056314D01*
X0089164Y0056324D01*
X0089154Y0056335D01*
X0089154Y0059463D01*
X0089164Y0059474D01*
X0089154Y0059485D01*
X0089154Y0062613D01*
X0089164Y0062624D01*
X0089154Y0062634D01*
X0089154Y0065763D01*
X0089164Y0065773D01*
X0089154Y0065784D01*
X0089154Y0067798D01*
X0075727Y0067798D01*
X0074032Y0066102D01*
X0073708Y0065320D01*
X0072700Y0064312D01*
X0071384Y0063767D01*
X0069959Y0063767D01*
X0068643Y0064312D01*
X0068307Y0064648D01*
X0052190Y0064648D01*
X0052190Y0062634D01*
X0052179Y0062624D01*
X0052190Y0062613D01*
X0052190Y0059485D01*
X0052179Y0059474D01*
X0052190Y0059463D01*
X0052190Y0056335D01*
X0052179Y0056324D01*
X0052190Y0056314D01*
X0052190Y0053185D01*
X0051370Y0052365D01*
X0044304Y0052365D01*
X0043484Y0053185D01*
X0043484Y0056314D01*
X0043495Y0056324D01*
X0043484Y0056335D01*
X0043484Y0059463D01*
X0043495Y0059474D01*
X0043484Y0059485D01*
X0043484Y0062613D01*
X0043495Y0062624D01*
X0043484Y0062634D01*
X0043484Y0064648D01*
X0039113Y0064648D01*
X0037742Y0063277D01*
X0037742Y0061051D01*
X0038078Y0060715D01*
X0038623Y0059399D01*
X0038623Y0057974D01*
X0038078Y0056658D01*
X0037742Y0056322D01*
X0037742Y0055165D01*
X0038181Y0055165D01*
X0039001Y0054345D01*
X0039001Y0047280D01*
X0038181Y0046460D01*
X0031903Y0046460D01*
X0031302Y0047061D01*
X0030700Y0046460D01*
X0024422Y0046460D01*
X0023602Y0047280D01*
X0023602Y0048113D01*
X0023450Y0048113D01*
X0023450Y0047870D01*
X0022630Y0047050D01*
X0016745Y0047050D01*
X0015925Y0047870D01*
X0015925Y0053755D01*
X0016745Y0054575D01*
X0022630Y0054575D01*
X0023450Y0053755D01*
X0023450Y0053513D01*
X0023602Y0053513D01*
X0023602Y0054345D01*
X0024422Y0055165D01*
X0030700Y0055165D01*
X0031302Y0054564D01*
X0031903Y0055165D01*
X0032342Y0055165D01*
X0032342Y0056322D01*
X0032006Y0056658D01*
X0031461Y0057974D01*
X0031461Y0059399D01*
X0032006Y0060715D01*
X0032342Y0061051D01*
X0032342Y0064932D01*
X0032753Y0065925D01*
X0036465Y0069637D01*
X0037457Y0070048D01*
X0043284Y0070048D01*
X0043284Y0070498D01*
X0047837Y0070498D01*
X0047837Y0070498D01*
X0052390Y0070498D01*
X0052390Y0071693D01*
X0052281Y0072099D01*
X0052190Y0072257D01*
X0052190Y0075211D01*
X0052179Y0075222D01*
X0052190Y0075233D01*
X0052190Y0078361D01*
X0052179Y0078372D01*
X0052190Y0078382D01*
X0052190Y0081511D01*
X0052179Y0081521D01*
X0052190Y0081532D01*
X0052190Y0084660D01*
X0052179Y0084671D01*
X0052190Y0084682D01*
X0052190Y0087810D01*
X0051370Y0088630D01*
X0044304Y0088630D01*
X0043484Y0087810D01*
X0043484Y0085796D01*
X0041475Y0085796D01*
X0037742Y0089529D01*
X0037742Y0093704D01*
X0038181Y0093704D01*
X0039001Y0094524D01*
X0039001Y0101589D01*
X0038596Y0101994D01*
X0039001Y0102398D01*
X0039001Y0103231D01*
X0040335Y0103231D01*
X0040335Y0103185D01*
X0041155Y0102365D01*
X0046252Y0102365D01*
X0047050Y0103163D01*
X0047848Y0102365D01*
X0050734Y0102365D01*
X0054603Y0098496D01*
X0055363Y0097736D01*
X0055486Y0097685D01*
X0053359Y0097685D01*
X0052539Y0096865D01*
X0052539Y0089800D01*
X0053359Y0088980D01*
X0056488Y0088980D01*
X0056498Y0088990D01*
X0056509Y0088980D01*
X0059637Y0088980D01*
X0059648Y0088990D01*
X0059659Y0088980D01*
X0062787Y0088980D01*
X0062798Y0088990D01*
X0062808Y0088980D01*
X0065937Y0088980D01*
X0065947Y0088990D01*
X0065958Y0088980D01*
X0069086Y0088980D01*
X0069097Y0088990D01*
X0069107Y0088980D01*
X0072236Y0088980D01*
X0072246Y0088990D01*
X0072257Y0088980D01*
X0075385Y0088980D01*
X0075396Y0088990D01*
X0075407Y0088980D01*
X0078535Y0088980D01*
X0078546Y0088990D01*
X0078556Y0088980D01*
X0081685Y0088980D01*
X0081695Y0088990D01*
X0081706Y0088980D01*
X0084834Y0088980D01*
X0084845Y0088990D01*
X0084856Y0088980D01*
X0087984Y0088980D01*
X0088804Y0089800D01*
X0088804Y0096865D01*
X0087984Y0097685D01*
X0084856Y0097685D01*
X0084845Y0097674D01*
X0084834Y0097685D01*
X0081706Y0097685D01*
X0081695Y0097674D01*
X0081685Y0097685D01*
X0078556Y0097685D01*
X0078546Y0097674D01*
X0078535Y0097685D01*
X0078055Y0097685D01*
X0081668Y0101297D01*
X0083164Y0101917D01*
X0084402Y0103155D01*
X0085072Y0104772D01*
X0085072Y0112522D01*
X0084402Y0114140D01*
X0083164Y0115377D01*
X0081547Y0116047D01*
X0079796Y0116047D01*
X0078179Y0115377D01*
X0076942Y0114140D01*
X0076272Y0112522D01*
X0076272Y0104772D01*
X0076633Y0103899D01*
X0071532Y0098799D01*
X0071121Y0097806D01*
X0071121Y0097685D01*
X0069107Y0097685D01*
X0069097Y0097674D01*
X0069086Y0097685D01*
X0068140Y0097685D01*
X0068264Y0097736D01*
X0071936Y0101409D01*
X0073164Y0101917D01*
X0074402Y0103155D01*
X0075072Y0104772D01*
X0075072Y0112522D01*
X0074402Y0114140D01*
X0073164Y0115377D01*
X0071547Y0116047D01*
X0069796Y0116047D01*
X0068179Y0115377D01*
X0066942Y0114140D01*
X0066272Y0112522D01*
X0066272Y0104772D01*
X0066679Y0103788D01*
X0065616Y0102725D01*
X0064235Y0102725D01*
X0064606Y0103236D01*
X0064935Y0103881D01*
X0065158Y0104570D01*
X0065272Y0105285D01*
X0065272Y0108247D01*
X0061072Y0108247D01*
X0061072Y0109047D01*
X0065272Y0109047D01*
X0065272Y0112009D01*
X0065158Y0112724D01*
X0064935Y0113413D01*
X0064606Y0114058D01*
X0064180Y0114644D01*
X0063668Y0115156D01*
X0063083Y0115582D01*
X0062437Y0115910D01*
X0061749Y0116134D01*
X0061072Y0116241D01*
X0061072Y0109047D01*
X0060272Y0109047D01*
X0060272Y0116241D01*
X0059594Y0116134D01*
X0058906Y0115910D01*
X0058261Y0115582D01*
X0057675Y0115156D01*
X0057163Y0114644D01*
X0056737Y0114058D01*
X0056409Y0113413D01*
X0056185Y0112724D01*
X0056072Y0112009D01*
X0056072Y0109047D01*
X0060272Y0109047D01*
X0060272Y0108247D01*
X0056072Y0108247D01*
X0056072Y0105285D01*
X0056185Y0104570D01*
X0056194Y0104541D01*
X0053765Y0106971D01*
X0053765Y0108676D01*
X0052944Y0109496D01*
X0047848Y0109496D01*
X0047050Y0108698D01*
X0046252Y0109496D01*
X0045616Y0109496D01*
X0045616Y0113160D01*
X0045398Y0113685D01*
X0045398Y0115565D01*
X0044578Y0116385D01*
X0041253Y0116385D01*
X0041173Y0116305D01*
X0040876Y0116476D01*
X0040469Y0116585D01*
X0039176Y0116585D01*
X0039176Y0112623D01*
X0039176Y0108661D01*
X0040216Y0108661D01*
X0040216Y0108631D01*
X0039001Y0108631D01*
X0039001Y0108661D01*
X0039176Y0108661D01*
X0039176Y0112623D01*
X0039176Y0112623D01*
X0039176Y0117742D01*
X0047235Y0117742D01*
X0047454Y0117523D01*
X0047465Y0117523D01*
X0050101Y0114887D01*
X0054431Y0114887D01*
X0060672Y0108647D01*
X0061072Y0108355D02*
X0066272Y0108355D01*
X0066272Y0109553D02*
X0065272Y0109553D01*
X0065272Y0110752D02*
X0066272Y0110752D01*
X0066272Y0111950D02*
X0065272Y0111950D01*
X0065021Y0113149D02*
X0066531Y0113149D01*
X0067149Y0114347D02*
X0064396Y0114347D01*
X0063132Y0115546D02*
X0068585Y0115546D01*
X0072758Y0115546D02*
X0078585Y0115546D01*
X0077149Y0114347D02*
X0074194Y0114347D01*
X0074812Y0113149D02*
X0076531Y0113149D01*
X0076272Y0111950D02*
X0075072Y0111950D01*
X0075072Y0110752D02*
X0076272Y0110752D01*
X0076272Y0109553D02*
X0075072Y0109553D01*
X0075072Y0108355D02*
X0076272Y0108355D01*
X0076272Y0107156D02*
X0075072Y0107156D01*
X0075072Y0105958D02*
X0076272Y0105958D01*
X0076277Y0104759D02*
X0075066Y0104759D01*
X0074570Y0103561D02*
X0076294Y0103561D01*
X0075096Y0102362D02*
X0073609Y0102362D01*
X0073897Y0101163D02*
X0071691Y0101163D01*
X0072699Y0099965D02*
X0070493Y0099965D01*
X0071519Y0098766D02*
X0069294Y0098766D01*
X0066735Y0100025D02*
X0070672Y0103962D01*
X0070672Y0108647D01*
X0066272Y0107156D02*
X0065272Y0107156D01*
X0065272Y0105958D02*
X0066272Y0105958D01*
X0066277Y0104759D02*
X0065188Y0104759D01*
X0064771Y0103561D02*
X0066452Y0103561D01*
X0066735Y0100025D02*
X0056892Y0100025D01*
X0050987Y0105931D01*
X0050396Y0105931D01*
X0053765Y0107156D02*
X0056072Y0107156D01*
X0056072Y0105958D02*
X0054778Y0105958D01*
X0055977Y0104759D02*
X0056155Y0104759D01*
X0053765Y0108355D02*
X0060272Y0108355D01*
X0060272Y0109553D02*
X0061072Y0109553D01*
X0061072Y0110752D02*
X0060272Y0110752D01*
X0060272Y0111950D02*
X0061072Y0111950D01*
X0061072Y0113149D02*
X0060272Y0113149D01*
X0060272Y0114347D02*
X0061072Y0114347D01*
X0061072Y0115546D02*
X0060272Y0115546D01*
X0058211Y0115546D02*
X0055539Y0115546D01*
X0055539Y0114602D02*
X0055539Y0116771D01*
X0055430Y0117178D01*
X0055220Y0117543D01*
X0054922Y0117841D01*
X0054868Y0117872D01*
X0055339Y0118343D01*
X0055339Y0124621D01*
X0055076Y0124884D01*
X0110042Y0124884D01*
X0110042Y0106662D01*
X0109505Y0106662D01*
X0108512Y0106251D01*
X0107753Y0105492D01*
X0107342Y0104499D01*
X0107342Y0088909D01*
X0104736Y0088909D01*
X0104736Y0082909D01*
X0103536Y0082909D01*
X0103536Y0088909D01*
X0100326Y0088909D01*
X0099919Y0088800D01*
X0099554Y0088589D01*
X0099256Y0088291D01*
X0099045Y0087926D01*
X0098936Y0087519D01*
X0098936Y0082909D01*
X0103536Y0082909D01*
X0103536Y0081709D01*
X0098936Y0081709D01*
X0098936Y0077098D01*
X0099045Y0076691D01*
X0099256Y0076326D01*
X0099320Y0076262D01*
X0099136Y0076078D01*
X0099136Y0073198D01*
X0098059Y0073198D01*
X0098059Y0073647D01*
X0093506Y0073647D01*
X0088954Y0073647D01*
X0088954Y0073198D01*
X0074072Y0073198D01*
X0073079Y0072787D01*
X0071222Y0070929D01*
X0069959Y0070929D01*
X0068643Y0070384D01*
X0068307Y0070048D01*
X0052390Y0070048D01*
X0052390Y0070498D01*
X0047837Y0070498D01*
X0047837Y0070498D01*
X0058861Y0070498D01*
X0058861Y0078175D01*
X0059057Y0078372D01*
X0059057Y0078372D01*
X0055476Y0078372D01*
X0055476Y0078724D01*
X0055614Y0079416D01*
X0055884Y0080068D01*
X0056276Y0080654D01*
X0056775Y0081153D01*
X0057361Y0081545D01*
X0058013Y0081815D01*
X0058705Y0081953D01*
X0059057Y0081953D01*
X0059057Y0078372D01*
X0059058Y0078372D01*
X0062639Y0078372D01*
X0062639Y0078724D01*
X0062501Y0079416D01*
X0062231Y0080068D01*
X0061839Y0080654D01*
X0061340Y0081153D01*
X0060754Y0081545D01*
X0060102Y0081815D01*
X0059410Y0081953D01*
X0059058Y0081953D01*
X0059058Y0078372D01*
X0059058Y0078372D01*
X0062639Y0078372D01*
X0062639Y0078019D01*
X0062501Y0077327D01*
X0062231Y0076675D01*
X0061839Y0076089D01*
X0061340Y0075590D01*
X0060754Y0075198D01*
X0060102Y0074928D01*
X0059410Y0074791D01*
X0059058Y0074791D01*
X0059058Y0078372D01*
X0059057Y0078372D01*
X0055476Y0078372D01*
X0055476Y0078019D01*
X0055614Y0077327D01*
X0055884Y0076675D01*
X0056276Y0076089D01*
X0056775Y0075590D01*
X0057361Y0075198D01*
X0058013Y0074928D01*
X0058705Y0074791D01*
X0059057Y0074791D01*
X0059057Y0078372D01*
X0059057Y0078392D02*
X0059058Y0078392D01*
X0059057Y0079590D02*
X0059058Y0079590D01*
X0059057Y0080789D02*
X0059058Y0080789D01*
X0056410Y0080789D02*
X0052190Y0080789D01*
X0052190Y0081987D02*
X0089154Y0081987D01*
X0089154Y0081532D02*
X0089164Y0081521D01*
X0089154Y0081511D01*
X0089154Y0078382D01*
X0089164Y0078372D01*
X0089154Y0078361D01*
X0089154Y0075407D01*
X0089063Y0075249D01*
X0088954Y0074842D01*
X0088954Y0073647D01*
X0093506Y0073647D01*
X0093506Y0073647D01*
X0097443Y0073647D01*
X0098231Y0074435D01*
X0098231Y0076403D01*
X0104136Y0082309D01*
X0103536Y0081987D02*
X0097859Y0081987D01*
X0097859Y0081532D02*
X0097859Y0084660D01*
X0097848Y0084671D01*
X0097859Y0084682D01*
X0097859Y0087810D01*
X0097039Y0088630D01*
X0089974Y0088630D01*
X0089154Y0087810D01*
X0089154Y0084682D01*
X0089164Y0084671D01*
X0089154Y0084660D01*
X0089154Y0081532D01*
X0089154Y0080789D02*
X0084933Y0080789D01*
X0085067Y0080654D02*
X0084569Y0081153D01*
X0083982Y0081545D01*
X0083330Y0081815D01*
X0082639Y0081953D01*
X0082286Y0081953D01*
X0082286Y0078372D01*
X0082286Y0078372D01*
X0085867Y0078372D01*
X0085867Y0078724D01*
X0085729Y0079416D01*
X0085459Y0080068D01*
X0085067Y0080654D01*
X0085657Y0079590D02*
X0089154Y0079590D01*
X0089154Y0078392D02*
X0085867Y0078392D01*
X0085867Y0078372D02*
X0082286Y0078372D01*
X0082286Y0078372D01*
X0082286Y0081953D01*
X0081933Y0081953D01*
X0081241Y0081815D01*
X0080590Y0081545D01*
X0080003Y0081153D01*
X0079504Y0080654D01*
X0079112Y0080068D01*
X0078842Y0079416D01*
X0078705Y0078724D01*
X0078705Y0078372D01*
X0082286Y0078372D01*
X0082483Y0078175D01*
X0082483Y0073647D01*
X0093506Y0073647D01*
X0093506Y0073647D01*
X0098059Y0073647D01*
X0098059Y0074842D01*
X0097950Y0075249D01*
X0097859Y0075407D01*
X0097859Y0078361D01*
X0097848Y0078372D01*
X0097859Y0078382D01*
X0097859Y0081511D01*
X0097848Y0081521D01*
X0097859Y0081532D01*
X0097859Y0080789D02*
X0098936Y0080789D01*
X0098936Y0079590D02*
X0097859Y0079590D01*
X0097859Y0078392D02*
X0098936Y0078392D01*
X0098936Y0077193D02*
X0097859Y0077193D01*
X0097859Y0075995D02*
X0099136Y0075995D01*
X0099136Y0074796D02*
X0098059Y0074796D01*
X0098059Y0073598D02*
X0099136Y0073598D01*
X0104136Y0070498D02*
X0093506Y0070498D01*
X0074609Y0070498D01*
X0071459Y0067348D01*
X0070672Y0067348D01*
X0047837Y0067348D01*
X0037994Y0067348D01*
X0035042Y0064395D01*
X0035042Y0058687D01*
X0035042Y0050813D01*
X0039001Y0050826D02*
X0052539Y0050826D01*
X0052539Y0049627D02*
X0039001Y0049627D01*
X0039001Y0048429D02*
X0052539Y0048429D01*
X0052539Y0047230D02*
X0038951Y0047230D01*
X0039001Y0052025D02*
X0071121Y0052025D01*
X0071121Y0053223D02*
X0052190Y0053223D01*
X0052190Y0054422D02*
X0071121Y0054422D01*
X0071504Y0055620D02*
X0052190Y0055620D01*
X0052190Y0056819D02*
X0072662Y0056819D01*
X0073861Y0058017D02*
X0052190Y0058017D01*
X0052190Y0059216D02*
X0074965Y0059216D01*
X0075304Y0060414D02*
X0052190Y0060414D01*
X0052190Y0061613D02*
X0076210Y0061613D01*
X0078546Y0058883D02*
X0073821Y0054159D01*
X0073821Y0047663D01*
X0073821Y0041757D01*
X0074609Y0040970D01*
X0092325Y0040970D01*
X0095672Y0037624D01*
X0095672Y0033096D01*
X0081810Y0027922D02*
X0079727Y0027922D01*
X0079935Y0028330D01*
X0080158Y0029019D01*
X0080272Y0029734D01*
X0080272Y0032696D01*
X0076072Y0032696D01*
X0076072Y0033496D01*
X0080272Y0033496D01*
X0080272Y0036458D01*
X0080158Y0037173D01*
X0079935Y0037862D01*
X0079727Y0038270D01*
X0081810Y0038270D01*
X0081272Y0036971D01*
X0081272Y0029221D01*
X0081810Y0027922D01*
X0081755Y0028054D02*
X0079794Y0028054D01*
X0080195Y0029253D02*
X0081272Y0029253D01*
X0081272Y0030451D02*
X0080272Y0030451D01*
X0080272Y0031650D02*
X0081272Y0031650D01*
X0081272Y0032848D02*
X0076072Y0032848D01*
X0075272Y0032848D02*
X0070072Y0032848D01*
X0071072Y0032696D02*
X0071072Y0029734D01*
X0071185Y0029019D01*
X0071409Y0028330D01*
X0071617Y0027922D01*
X0069534Y0027922D01*
X0070072Y0029221D01*
X0070072Y0036971D01*
X0069618Y0038067D01*
X0071656Y0040104D01*
X0072320Y0039441D01*
X0072415Y0039345D01*
X0072163Y0039093D01*
X0071737Y0038507D01*
X0071409Y0037862D01*
X0071185Y0037173D01*
X0071072Y0036458D01*
X0071072Y0033496D01*
X0075272Y0033496D01*
X0075272Y0032696D01*
X0071072Y0032696D01*
X0071072Y0031650D02*
X0070072Y0031650D01*
X0070072Y0030451D02*
X0071072Y0030451D01*
X0071148Y0029253D02*
X0070072Y0029253D01*
X0069588Y0028054D02*
X0071549Y0028054D01*
X0071072Y0034047D02*
X0070072Y0034047D01*
X0070072Y0035245D02*
X0071072Y0035245D01*
X0071072Y0036444D02*
X0070072Y0036444D01*
X0069794Y0037642D02*
X0071337Y0037642D01*
X0071980Y0038841D02*
X0070392Y0038841D01*
X0071591Y0040039D02*
X0071721Y0040039D01*
X0070672Y0042939D02*
X0065672Y0037939D01*
X0065672Y0033096D01*
X0064766Y0040970D02*
X0058861Y0040970D01*
X0055672Y0037781D01*
X0055672Y0033096D01*
X0051272Y0032848D02*
X0050072Y0032848D01*
X0050072Y0031650D02*
X0051272Y0031650D01*
X0051272Y0030451D02*
X0050072Y0030451D01*
X0050072Y0029253D02*
X0051272Y0029253D01*
X0051755Y0028054D02*
X0049588Y0028054D01*
X0050072Y0034047D02*
X0051272Y0034047D01*
X0051272Y0035245D02*
X0050072Y0035245D01*
X0050072Y0036444D02*
X0051272Y0036444D01*
X0051550Y0037642D02*
X0049794Y0037642D01*
X0049149Y0038841D02*
X0052194Y0038841D01*
X0053694Y0040039D02*
X0047649Y0040039D01*
X0043694Y0040039D02*
X0008411Y0040039D01*
X0008411Y0038841D02*
X0042194Y0038841D01*
X0041550Y0037642D02*
X0008411Y0037642D01*
X0008411Y0036444D02*
X0041272Y0036444D01*
X0041272Y0035245D02*
X0008411Y0035245D01*
X0008411Y0034047D02*
X0041272Y0034047D01*
X0041272Y0032848D02*
X0008411Y0032848D01*
X0008411Y0031650D02*
X0041272Y0031650D01*
X0041272Y0030451D02*
X0008411Y0030451D01*
X0008411Y0029253D02*
X0041272Y0029253D01*
X0041755Y0028054D02*
X0008411Y0028054D01*
X0008411Y0026856D02*
X0027148Y0026856D01*
X0026633Y0025657D02*
X0008411Y0025657D01*
X0008411Y0041238D02*
X0055310Y0041238D01*
X0056509Y0042436D02*
X0008411Y0042436D01*
X0008411Y0043635D02*
X0053035Y0043635D01*
X0052539Y0044833D02*
X0008411Y0044833D01*
X0008411Y0046032D02*
X0052539Y0046032D01*
X0043484Y0053223D02*
X0039001Y0053223D01*
X0038924Y0054422D02*
X0043484Y0054422D01*
X0043484Y0055620D02*
X0037742Y0055620D01*
X0038144Y0056819D02*
X0043484Y0056819D01*
X0043484Y0058017D02*
X0038623Y0058017D01*
X0038623Y0059216D02*
X0043484Y0059216D01*
X0043484Y0060414D02*
X0038202Y0060414D01*
X0037742Y0061613D02*
X0043484Y0061613D01*
X0043484Y0062811D02*
X0037742Y0062811D01*
X0038474Y0064010D02*
X0043484Y0064010D01*
X0043284Y0070498D02*
X0047837Y0070498D01*
X0043284Y0070498D02*
X0043284Y0071693D01*
X0043393Y0072099D01*
X0043484Y0072257D01*
X0043484Y0075211D01*
X0043495Y0075222D01*
X0043484Y0075233D01*
X0043484Y0077246D01*
X0041672Y0077246D01*
X0039001Y0074575D01*
X0039001Y0070902D01*
X0038181Y0070082D01*
X0031903Y0070082D01*
X0031302Y0070683D01*
X0030700Y0070082D01*
X0024422Y0070082D01*
X0023602Y0070902D01*
X0023602Y0071735D01*
X0023450Y0071735D01*
X0023450Y0071493D01*
X0022630Y0070672D01*
X0016745Y0070672D01*
X0015925Y0071493D01*
X0015925Y0077377D01*
X0016745Y0078197D01*
X0022630Y0078197D01*
X0023450Y0077377D01*
X0023450Y0077135D01*
X0023602Y0077135D01*
X0023602Y0077967D01*
X0024422Y0078787D01*
X0030700Y0078787D01*
X0031302Y0078186D01*
X0031903Y0078787D01*
X0035576Y0078787D01*
X0038212Y0081423D01*
X0032753Y0086882D01*
X0032342Y0087874D01*
X0032342Y0093704D01*
X0031903Y0093704D01*
X0031302Y0094305D01*
X0030700Y0093704D01*
X0024422Y0093704D01*
X0023602Y0094524D01*
X0023602Y0095357D01*
X0023450Y0095357D01*
X0023450Y0095115D01*
X0022630Y0094294D01*
X0016745Y0094294D01*
X0015925Y0095115D01*
X0015925Y0100999D01*
X0016745Y0101819D01*
X0022630Y0101819D01*
X0023450Y0100999D01*
X0023450Y0100757D01*
X0023602Y0100757D01*
X0023602Y0101589D01*
X0023865Y0101852D01*
X0023722Y0101996D01*
X0023511Y0102360D01*
X0023402Y0102767D01*
X0023402Y0105331D01*
X0026961Y0105331D01*
X0026961Y0106531D01*
X0023402Y0106531D01*
X0023402Y0109094D01*
X0023511Y0109501D01*
X0023722Y0109866D01*
X0023805Y0109949D01*
X0023794Y0109952D01*
X0023429Y0110162D01*
X0023131Y0110460D01*
X0022921Y0110825D01*
X0022812Y0111232D01*
X0022812Y0113402D01*
X0026765Y0113402D01*
X0026765Y0114602D01*
X0022812Y0114602D01*
X0022812Y0116394D01*
X0022171Y0116129D01*
X0020747Y0116129D01*
X0019431Y0116674D01*
X0018423Y0117682D01*
X0017878Y0118998D01*
X0017878Y0120423D01*
X0018423Y0121739D01*
X0019431Y0122746D01*
X0020747Y0123291D01*
X0021222Y0123291D01*
X0021701Y0123771D01*
X0022694Y0124182D01*
X0023012Y0124182D01*
X0023012Y0124621D01*
X0023275Y0124884D01*
X0018640Y0124884D01*
X0008411Y0114655D01*
X0008411Y0101893D01*
X0008440Y0101910D01*
X0008847Y0102019D01*
X0010839Y0102019D01*
X0010839Y0098638D01*
X0012001Y0098638D01*
X0012001Y0102019D01*
X0013993Y0102019D01*
X0014399Y0101910D01*
X0014764Y0101699D01*
X0015062Y0101401D01*
X0015273Y0101036D01*
X0015382Y0100630D01*
X0015382Y0098638D01*
X0012001Y0098638D01*
X0012001Y0097476D01*
X0015382Y0097476D01*
X0015382Y0095484D01*
X0015273Y0095077D01*
X0015062Y0094712D01*
X0014764Y0094414D01*
X0014399Y0094204D01*
X0013993Y0094094D01*
X0012001Y0094094D01*
X0012001Y0097476D01*
X0010839Y0097476D01*
X0010839Y0094094D01*
X0008847Y0094094D01*
X0008440Y0094204D01*
X0008411Y0094220D01*
X0008411Y0078271D01*
X0008440Y0078288D01*
X0008847Y0078397D01*
X0010839Y0078397D01*
X0010839Y0075016D01*
X0012001Y0075016D01*
X0012001Y0078397D01*
X0013993Y0078397D01*
X0014399Y0078288D01*
X0014764Y0078077D01*
X0015062Y0077779D01*
X0015273Y0077414D01*
X0015382Y0077007D01*
X0015382Y0075016D01*
X0012001Y0075016D01*
X0012001Y0073854D01*
X0015382Y0073854D01*
X0015382Y0071862D01*
X0015273Y0071455D01*
X0015062Y0071090D01*
X0014764Y0070792D01*
X0014399Y0070581D01*
X0013993Y0070472D01*
X0012001Y0070472D01*
X0012001Y0073853D01*
X0010839Y0073853D01*
X0010839Y0070472D01*
X0008847Y0070472D01*
X0008440Y0070581D01*
X0008411Y0070598D01*
X0008411Y0054649D01*
X0008440Y0054666D01*
X0008847Y0054775D01*
X0010839Y0054775D01*
X0010839Y0051394D01*
X0012001Y0051394D01*
X0012001Y0054775D01*
X0013993Y0054775D01*
X0014399Y0054666D01*
X0014764Y0054455D01*
X0015062Y0054157D01*
X0015273Y0053792D01*
X0015382Y0053385D01*
X0015382Y0051394D01*
X0012001Y0051394D01*
X0012001Y0050231D01*
X0012001Y0046850D01*
X0013993Y0046850D01*
X0014399Y0046959D01*
X0014764Y0047170D01*
X0015062Y0047468D01*
X0015273Y0047833D01*
X0015382Y0048240D01*
X0015382Y0050231D01*
X0012001Y0050231D01*
X0010839Y0050231D01*
X0010839Y0046850D01*
X0008847Y0046850D01*
X0008440Y0046959D01*
X0008411Y0046976D01*
X0010839Y0047230D02*
X0012001Y0047230D01*
X0012001Y0048429D02*
X0010839Y0048429D01*
X0010839Y0049627D02*
X0012001Y0049627D01*
X0012001Y0050826D02*
X0015925Y0050826D01*
X0015925Y0049627D02*
X0015382Y0049627D01*
X0015382Y0048429D02*
X0015925Y0048429D01*
X0016565Y0047230D02*
X0014825Y0047230D01*
X0015382Y0052025D02*
X0015925Y0052025D01*
X0015925Y0053223D02*
X0015382Y0053223D01*
X0014798Y0054422D02*
X0016592Y0054422D01*
X0019687Y0050813D02*
X0027561Y0050813D01*
X0023679Y0054422D02*
X0022783Y0054422D01*
X0022810Y0047230D02*
X0023652Y0047230D01*
X0032342Y0055620D02*
X0008411Y0055620D01*
X0008411Y0056819D02*
X0031939Y0056819D01*
X0031461Y0058017D02*
X0008411Y0058017D01*
X0008411Y0059216D02*
X0031461Y0059216D01*
X0031881Y0060414D02*
X0008411Y0060414D01*
X0008411Y0061613D02*
X0032342Y0061613D01*
X0032342Y0062811D02*
X0008411Y0062811D01*
X0008411Y0064010D02*
X0032342Y0064010D01*
X0032456Y0065208D02*
X0008411Y0065208D01*
X0008411Y0066407D02*
X0033235Y0066407D01*
X0034433Y0067605D02*
X0008411Y0067605D01*
X0008411Y0068804D02*
X0035632Y0068804D01*
X0037347Y0070002D02*
X0008411Y0070002D01*
X0010839Y0071201D02*
X0012001Y0071201D01*
X0012001Y0072399D02*
X0010839Y0072399D01*
X0010839Y0073598D02*
X0012001Y0073598D01*
X0011420Y0074435D02*
X0011420Y0050813D01*
X0010839Y0052025D02*
X0012001Y0052025D01*
X0012001Y0053223D02*
X0010839Y0053223D01*
X0010839Y0054422D02*
X0012001Y0054422D01*
X0015126Y0071201D02*
X0016217Y0071201D01*
X0015925Y0072399D02*
X0015382Y0072399D01*
X0015382Y0073598D02*
X0015925Y0073598D01*
X0015925Y0074796D02*
X0012001Y0074796D01*
X0011420Y0074435D02*
X0011420Y0098057D01*
X0011420Y0101797D01*
X0015554Y0105931D01*
X0027561Y0105931D01*
X0027365Y0106128D01*
X0027365Y0114002D01*
X0030886Y0117523D01*
X0030897Y0117523D01*
X0031116Y0117742D01*
X0039176Y0117742D01*
X0039176Y0116585D02*
X0037882Y0116585D01*
X0037475Y0116476D01*
X0037178Y0116305D01*
X0037098Y0116385D01*
X0033773Y0116385D01*
X0032953Y0115565D01*
X0032953Y0113685D01*
X0032735Y0113160D01*
X0032735Y0110283D01*
X0031903Y0110283D01*
X0031432Y0109812D01*
X0031401Y0109866D01*
X0031176Y0110091D01*
X0031300Y0110162D01*
X0031598Y0110460D01*
X0031808Y0110825D01*
X0031917Y0111232D01*
X0031917Y0113402D01*
X0027965Y0113402D01*
X0027965Y0114602D01*
X0031917Y0114602D01*
X0031917Y0116771D01*
X0031808Y0117178D01*
X0031598Y0117543D01*
X0031300Y0117841D01*
X0031246Y0117872D01*
X0031717Y0118343D01*
X0031717Y0120160D01*
X0032953Y0120160D01*
X0032953Y0119918D01*
X0033773Y0119098D01*
X0037098Y0119098D01*
X0037918Y0119918D01*
X0037918Y0121799D01*
X0038135Y0122323D01*
X0038135Y0123397D01*
X0037918Y0123922D01*
X0037918Y0124884D01*
X0040433Y0124884D01*
X0040433Y0123922D01*
X0040216Y0123397D01*
X0040216Y0122323D01*
X0040433Y0121799D01*
X0040433Y0119918D01*
X0041253Y0119098D01*
X0044578Y0119098D01*
X0045398Y0119918D01*
X0045398Y0120160D01*
X0046634Y0120160D01*
X0046634Y0118343D01*
X0047105Y0117872D01*
X0047051Y0117841D01*
X0046754Y0117543D01*
X0046543Y0117178D01*
X0046434Y0116771D01*
X0046434Y0114602D01*
X0050387Y0114602D01*
X0050387Y0113402D01*
X0046434Y0113402D01*
X0046434Y0111232D01*
X0046543Y0110825D01*
X0046754Y0110460D01*
X0047051Y0110162D01*
X0047416Y0109952D01*
X0047823Y0109843D01*
X0050387Y0109843D01*
X0050387Y0113402D01*
X0051587Y0113402D01*
X0051587Y0114602D01*
X0055539Y0114602D01*
X0055539Y0113402D02*
X0051587Y0113402D01*
X0051587Y0109843D01*
X0054150Y0109843D01*
X0054557Y0109952D01*
X0054922Y0110162D01*
X0055220Y0110460D01*
X0055430Y0110825D01*
X0055539Y0111232D01*
X0055539Y0113402D01*
X0055539Y0113149D02*
X0056323Y0113149D01*
X0056072Y0111950D02*
X0055539Y0111950D01*
X0055388Y0110752D02*
X0056072Y0110752D01*
X0056072Y0109553D02*
X0045616Y0109553D01*
X0045616Y0110752D02*
X0046585Y0110752D01*
X0046434Y0111950D02*
X0045616Y0111950D01*
X0045616Y0113149D02*
X0046434Y0113149D01*
X0045398Y0114347D02*
X0050387Y0114347D01*
X0050101Y0114887D02*
X0050987Y0114002D01*
X0051587Y0114347D02*
X0056947Y0114347D01*
X0055539Y0116744D02*
X0110042Y0116744D01*
X0110042Y0115546D02*
X0082758Y0115546D01*
X0084194Y0114347D02*
X0110042Y0114347D01*
X0110042Y0113149D02*
X0084812Y0113149D01*
X0085072Y0111950D02*
X0110042Y0111950D01*
X0110042Y0110752D02*
X0085072Y0110752D01*
X0085072Y0109553D02*
X0110042Y0109553D01*
X0110042Y0108355D02*
X0085072Y0108355D01*
X0085072Y0107156D02*
X0110042Y0107156D01*
X0108219Y0105958D02*
X0085072Y0105958D01*
X0085066Y0104759D02*
X0107449Y0104759D01*
X0107342Y0103561D02*
X0084570Y0103561D01*
X0083609Y0102362D02*
X0107342Y0102362D01*
X0107342Y0101163D02*
X0081534Y0101163D01*
X0080335Y0099965D02*
X0107342Y0099965D01*
X0107342Y0098766D02*
X0079137Y0098766D01*
X0073821Y0097269D02*
X0080672Y0104120D01*
X0080672Y0108647D01*
X0073821Y0097269D02*
X0073821Y0093332D01*
X0079639Y0080789D02*
X0061705Y0080789D01*
X0062429Y0079590D02*
X0078914Y0079590D01*
X0078705Y0078392D02*
X0062639Y0078392D01*
X0062446Y0077193D02*
X0078898Y0077193D01*
X0078842Y0077327D02*
X0079112Y0076675D01*
X0079504Y0076089D01*
X0080003Y0075590D01*
X0080590Y0075198D01*
X0081241Y0074928D01*
X0081933Y0074791D01*
X0082286Y0074791D01*
X0082639Y0074791D01*
X0083330Y0074928D01*
X0083982Y0075198D01*
X0084569Y0075590D01*
X0085067Y0076089D01*
X0085459Y0076675D01*
X0085729Y0077327D01*
X0085867Y0078019D01*
X0085867Y0078372D01*
X0085674Y0077193D02*
X0089154Y0077193D01*
X0089154Y0075995D02*
X0084973Y0075995D01*
X0082667Y0074796D02*
X0088954Y0074796D01*
X0088954Y0073598D02*
X0052190Y0073598D01*
X0052190Y0074796D02*
X0058676Y0074796D01*
X0059057Y0074796D02*
X0059058Y0074796D01*
X0059439Y0074796D02*
X0081905Y0074796D01*
X0082286Y0074796D02*
X0082286Y0074796D01*
X0082286Y0074791D02*
X0082286Y0078372D01*
X0082286Y0078372D01*
X0082286Y0078372D01*
X0078705Y0078372D01*
X0078705Y0078019D01*
X0078842Y0077327D01*
X0079598Y0075995D02*
X0061745Y0075995D01*
X0059058Y0075995D02*
X0059057Y0075995D01*
X0059057Y0077193D02*
X0059058Y0077193D01*
X0056370Y0075995D02*
X0052190Y0075995D01*
X0052190Y0077193D02*
X0055669Y0077193D01*
X0055476Y0078392D02*
X0052190Y0078392D01*
X0052190Y0079590D02*
X0055686Y0079590D01*
X0052190Y0083186D02*
X0089154Y0083186D01*
X0089154Y0084384D02*
X0052190Y0084384D01*
X0052190Y0085583D02*
X0089154Y0085583D01*
X0089154Y0086781D02*
X0052190Y0086781D01*
X0052020Y0087980D02*
X0089324Y0087980D01*
X0088183Y0089178D02*
X0107342Y0089178D01*
X0107342Y0090377D02*
X0088804Y0090377D01*
X0088804Y0091575D02*
X0107342Y0091575D01*
X0107342Y0092774D02*
X0088804Y0092774D01*
X0088804Y0093972D02*
X0107342Y0093972D01*
X0107342Y0095171D02*
X0088804Y0095171D01*
X0088804Y0096369D02*
X0107342Y0096369D01*
X0107342Y0097568D02*
X0088101Y0097568D01*
X0097689Y0087980D02*
X0099076Y0087980D01*
X0098936Y0086781D02*
X0097859Y0086781D01*
X0097859Y0085583D02*
X0098936Y0085583D01*
X0098936Y0084384D02*
X0097859Y0084384D01*
X0097859Y0083186D02*
X0098936Y0083186D01*
X0103536Y0083186D02*
X0104736Y0083186D01*
X0104736Y0084384D02*
X0103536Y0084384D01*
X0103536Y0085583D02*
X0104736Y0085583D01*
X0104736Y0086781D02*
X0103536Y0086781D01*
X0103536Y0087980D02*
X0104736Y0087980D01*
X0089154Y0067605D02*
X0075535Y0067605D01*
X0074336Y0066407D02*
X0089154Y0066407D01*
X0089154Y0065208D02*
X0073596Y0065208D01*
X0071970Y0064010D02*
X0089154Y0064010D01*
X0089154Y0062811D02*
X0052190Y0062811D01*
X0052190Y0064010D02*
X0069373Y0064010D01*
X0066735Y0070498D02*
X0069884Y0073647D01*
X0082483Y0073647D01*
X0082286Y0074791D02*
X0082286Y0078372D01*
X0082286Y0078392D02*
X0082286Y0078392D01*
X0082286Y0079590D02*
X0082286Y0079590D01*
X0082286Y0080789D02*
X0082286Y0080789D01*
X0082286Y0077193D02*
X0082286Y0077193D01*
X0082286Y0075995D02*
X0082286Y0075995D01*
X0072692Y0072399D02*
X0052190Y0072399D01*
X0052390Y0071201D02*
X0071493Y0071201D01*
X0066735Y0070498D02*
X0058861Y0070498D01*
X0047837Y0079946D02*
X0040554Y0079946D01*
X0035042Y0074435D01*
X0039001Y0073598D02*
X0043484Y0073598D01*
X0043484Y0074796D02*
X0039222Y0074796D01*
X0040420Y0075995D02*
X0043484Y0075995D01*
X0043484Y0077193D02*
X0041619Y0077193D01*
X0043484Y0072399D02*
X0039001Y0072399D01*
X0039001Y0071201D02*
X0043284Y0071201D01*
X0036379Y0079590D02*
X0008411Y0079590D01*
X0008411Y0078392D02*
X0008828Y0078392D01*
X0008411Y0080789D02*
X0037578Y0080789D01*
X0037647Y0081987D02*
X0008411Y0081987D01*
X0008411Y0083186D02*
X0036449Y0083186D01*
X0035250Y0084384D02*
X0008411Y0084384D01*
X0008411Y0085583D02*
X0034052Y0085583D01*
X0032853Y0086781D02*
X0008411Y0086781D01*
X0008411Y0087980D02*
X0032342Y0087980D01*
X0032342Y0089178D02*
X0008411Y0089178D01*
X0008411Y0090377D02*
X0032342Y0090377D01*
X0032342Y0091575D02*
X0008411Y0091575D01*
X0008411Y0092774D02*
X0032342Y0092774D01*
X0031634Y0093972D02*
X0030969Y0093972D01*
X0027561Y0098057D02*
X0019687Y0098057D01*
X0023450Y0095171D02*
X0023602Y0095171D01*
X0024154Y0093972D02*
X0008411Y0093972D01*
X0010839Y0095171D02*
X0012001Y0095171D01*
X0012001Y0096369D02*
X0010839Y0096369D01*
X0012001Y0097568D02*
X0015925Y0097568D01*
X0015925Y0098766D02*
X0015382Y0098766D01*
X0015382Y0099965D02*
X0015925Y0099965D01*
X0016090Y0101163D02*
X0015200Y0101163D01*
X0012001Y0101163D02*
X0010839Y0101163D01*
X0010839Y0099965D02*
X0012001Y0099965D01*
X0012001Y0098766D02*
X0010839Y0098766D01*
X0008411Y0102362D02*
X0023511Y0102362D01*
X0023602Y0101163D02*
X0023285Y0101163D01*
X0023402Y0103561D02*
X0008411Y0103561D01*
X0008411Y0104759D02*
X0023402Y0104759D01*
X0023402Y0107156D02*
X0008411Y0107156D01*
X0008411Y0105958D02*
X0026961Y0105958D01*
X0026961Y0106531D02*
X0026961Y0110483D01*
X0026765Y0110483D01*
X0026765Y0113402D01*
X0027965Y0113402D01*
X0027965Y0109843D01*
X0028161Y0109843D01*
X0028161Y0106531D01*
X0026961Y0106531D01*
X0026961Y0107156D02*
X0028161Y0107156D01*
X0028161Y0108355D02*
X0026961Y0108355D01*
X0026961Y0109553D02*
X0028161Y0109553D01*
X0027965Y0110752D02*
X0026765Y0110752D01*
X0026765Y0111950D02*
X0027965Y0111950D01*
X0027965Y0113149D02*
X0026765Y0113149D01*
X0026765Y0114347D02*
X0008411Y0114347D01*
X0008411Y0113149D02*
X0022812Y0113149D01*
X0022812Y0111950D02*
X0008411Y0111950D01*
X0008411Y0110752D02*
X0022963Y0110752D01*
X0023541Y0109553D02*
X0008411Y0109553D01*
X0008411Y0108355D02*
X0023402Y0108355D01*
X0027965Y0114347D02*
X0032953Y0114347D01*
X0032953Y0115546D02*
X0031917Y0115546D01*
X0031917Y0116744D02*
X0046434Y0116744D01*
X0046434Y0115546D02*
X0045398Y0115546D01*
X0047034Y0117943D02*
X0031317Y0117943D01*
X0031717Y0119141D02*
X0033730Y0119141D01*
X0035435Y0122860D02*
X0028743Y0122860D01*
X0027365Y0121482D01*
X0023231Y0121482D01*
X0021459Y0119710D01*
X0018315Y0117943D02*
X0011699Y0117943D01*
X0012897Y0119141D02*
X0017878Y0119141D01*
X0017878Y0120340D02*
X0014096Y0120340D01*
X0015294Y0121538D02*
X0018340Y0121538D01*
X0019421Y0122737D02*
X0016493Y0122737D01*
X0017691Y0123935D02*
X0022098Y0123935D01*
X0019361Y0116744D02*
X0010500Y0116744D01*
X0009302Y0115546D02*
X0022812Y0115546D01*
X0031917Y0113149D02*
X0032735Y0113149D01*
X0032735Y0111950D02*
X0031917Y0111950D01*
X0031766Y0110752D02*
X0032735Y0110752D01*
X0035435Y0112623D02*
X0035435Y0106324D01*
X0035042Y0105931D01*
X0043113Y0105931D01*
X0042916Y0106128D01*
X0042916Y0112623D01*
X0039176Y0112623D02*
X0039176Y0112623D01*
X0039176Y0116585D01*
X0039176Y0115546D02*
X0039176Y0115546D01*
X0039176Y0114347D02*
X0039176Y0114347D01*
X0039176Y0113149D02*
X0039176Y0113149D01*
X0039176Y0111950D02*
X0039176Y0111950D01*
X0039176Y0110752D02*
X0039176Y0110752D01*
X0039176Y0109553D02*
X0039176Y0109553D01*
X0043113Y0105931D02*
X0043703Y0105931D01*
X0038965Y0102362D02*
X0050737Y0102362D01*
X0051935Y0101163D02*
X0039001Y0101163D01*
X0039001Y0099965D02*
X0053134Y0099965D01*
X0054332Y0098766D02*
X0039001Y0098766D01*
X0039001Y0097568D02*
X0053242Y0097568D01*
X0052539Y0096369D02*
X0039001Y0096369D01*
X0039001Y0095171D02*
X0052539Y0095171D01*
X0052539Y0093972D02*
X0038449Y0093972D01*
X0037742Y0092774D02*
X0052539Y0092774D01*
X0052539Y0091575D02*
X0037742Y0091575D01*
X0037742Y0090377D02*
X0052539Y0090377D01*
X0053161Y0089178D02*
X0038093Y0089178D01*
X0039291Y0087980D02*
X0043654Y0087980D01*
X0043484Y0086781D02*
X0040490Y0086781D01*
X0040357Y0083096D02*
X0035042Y0088411D01*
X0035042Y0098057D01*
X0040357Y0083096D02*
X0047837Y0083096D01*
X0031507Y0078392D02*
X0031096Y0078392D01*
X0027561Y0074435D02*
X0019687Y0074435D01*
X0023450Y0077193D02*
X0023602Y0077193D01*
X0024027Y0078392D02*
X0014011Y0078392D01*
X0015332Y0077193D02*
X0015925Y0077193D01*
X0015925Y0075995D02*
X0015382Y0075995D01*
X0012001Y0075995D02*
X0010839Y0075995D01*
X0010839Y0077193D02*
X0012001Y0077193D01*
X0012001Y0078392D02*
X0010839Y0078392D01*
X0023158Y0071201D02*
X0023602Y0071201D01*
X0015925Y0095171D02*
X0015298Y0095171D01*
X0015382Y0096369D02*
X0015925Y0096369D01*
X0037141Y0119141D02*
X0041210Y0119141D01*
X0040433Y0120340D02*
X0037918Y0120340D01*
X0037918Y0121538D02*
X0040433Y0121538D01*
X0040216Y0122737D02*
X0038135Y0122737D01*
X0037918Y0123935D02*
X0040433Y0123935D01*
X0042916Y0122860D02*
X0049608Y0122860D01*
X0050987Y0121482D01*
X0055339Y0121538D02*
X0110042Y0121538D01*
X0110042Y0120340D02*
X0055339Y0120340D01*
X0055339Y0119141D02*
X0110042Y0119141D01*
X0110042Y0117943D02*
X0054939Y0117943D01*
X0055339Y0122737D02*
X0110042Y0122737D01*
X0110042Y0123935D02*
X0055339Y0123935D01*
X0046634Y0119141D02*
X0044621Y0119141D01*
X0050387Y0113149D02*
X0051587Y0113149D01*
X0051587Y0111950D02*
X0050387Y0111950D01*
X0050387Y0110752D02*
X0051587Y0110752D01*
X0080881Y0061613D02*
X0089154Y0061613D01*
X0089154Y0060414D02*
X0081788Y0060414D01*
X0082127Y0059216D02*
X0089154Y0059216D01*
X0089154Y0058017D02*
X0082063Y0058017D01*
X0081545Y0056819D02*
X0089154Y0056819D01*
X0089154Y0055620D02*
X0080025Y0055620D01*
X0078546Y0052781D02*
X0088388Y0052781D01*
X0090357Y0050813D01*
X0098231Y0050813D01*
X0104136Y0056718D01*
X0104136Y0058687D01*
X0081550Y0037642D02*
X0080006Y0037642D01*
X0080272Y0036444D02*
X0081272Y0036444D01*
X0081272Y0035245D02*
X0080272Y0035245D01*
X0080272Y0034047D02*
X0081272Y0034047D01*
X0070672Y0042939D02*
X0070672Y0047663D01*
X0067522Y0047663D02*
X0067522Y0043726D01*
X0064766Y0040970D01*
X0076971Y0047663D02*
X0076971Y0051206D01*
X0078546Y0052781D01*
D20*
X0078546Y0058883D03*
X0070672Y0067348D03*
X0082286Y0078372D03*
X0059057Y0078372D03*
X0035042Y0058687D03*
X0021459Y0119710D03*
M02*
